M48
; DRILL file {KiCad 9.0.6} date 2026-01-16T12:53:10-0800
; FORMAT={-:-/ absolute / metric / decimal}
; #@! TF.CreationDate,2026-01-16T12:53:10-08:00
; #@! TF.GenerationSoftware,Kicad,Pcbnew,9.0.6
; #@! TF.FileFunction,Plated,1,4,PTH
FMAT,2
METRIC
; #@! TA.AperFunction,Plated,PTH,ViaDrill
T1C0.300
; #@! TA.AperFunction,Plated,PTH,ComponentDrill
T2C1.400
%
G90
G05
T1
X136.3Y-92.6
X136.4Y-125.9
X137.3Y-125.9
X138.2Y-125.9
X138.8Y-87.9
X139.4Y-86.1
X140.001Y-99.6
X140.001Y-105.4
X140.1Y-84.0
X140.1Y-111.6
X140.1Y-112.3
X140.3Y-81.4
X140.3Y-88.7
X140.3Y-121.5
X140.3Y-122.2
X140.3Y-122.9
X140.5Y-107.567
X140.5Y-109.4
X140.5Y-114.5
X140.6Y-116.7
X140.6Y-117.4
X140.7Y-86.5
X140.9Y-110.9
X142.7Y-97.6
X143.05Y-92.756
X143.7Y-97.6
X143.9Y-115.7
X144.6Y-115.7
X144.7Y-122.1
X144.7Y-124.6
X144.9Y-78.5
X144.9Y-79.2
X145.0Y-110.7
X145.7Y-97.5
X146.0Y-125.1
X146.2Y-105.4
X146.4Y-130.7
X146.9Y-127.0
X147.5Y-88.5
X147.5Y-131.0
X147.7Y-127.05
X147.891Y-108.303
X147.942Y-106.658
X148.0Y-84.0
X148.3Y-110.5
X148.4Y-114.7
X148.4Y-119.8
X148.4Y-122.7
X148.5Y-93.4
X148.5Y-99.7
X148.5Y-118.8
X148.761Y-126.561
X149.008Y-106.591
X149.2Y-116.95
X149.221Y-122.204
X149.252Y-105.829
X149.497Y-122.974
X149.6Y-114.7
X150.0Y-81.9
X150.2Y-127.7
X150.4Y-107.7
X150.4Y-109.0
X150.4Y-131.1
X150.75Y-111.2
X150.817Y-114.69
X150.9Y-81.9
X151.0Y-127.7
X151.239Y-126.936
X151.7Y-81.9
X151.7Y-107.7
X151.7Y-109.0
X152.4Y-105.3
X152.4Y-117.2
X152.5Y-114.6
X152.7Y-104.4
X152.8Y-111.1
X153.0Y-78.8
X153.0Y-79.7
X153.1Y-114.0
X153.2Y-127.6
X153.3Y-117.2
X153.4Y-127.0
X154.0Y-127.5
X154.1Y-78.8
X154.1Y-79.7
X154.1Y-108.1
X154.1Y-111.2
X154.124Y-108.924
X154.2Y-124.9
X154.5Y-121.5
X154.6Y-93.405
X154.6Y-99.705
X154.7Y-118.6
X154.8Y-114.0
X154.8Y-124.0
X155.3Y-123.2
X155.3Y-126.1
X155.6Y-121.5
X156.2Y-117.8
X156.4Y-118.7
X156.6Y-128.1
X156.9Y-122.8
X157.0Y-107.5
X157.0Y-109.7
X157.7Y-120.799
X158.4Y-123.4
X158.4Y-126.1
X158.6Y-124.4
X158.6Y-125.2
X158.9Y-116.1
X159.4Y-97.0
X159.8Y-93.5
X159.8Y-94.4
X159.9Y-121.3
X160.1Y-97.0
X160.136Y-127.529
T2
X154.96Y-87.2
X157.5Y-87.2
X160.04Y-87.2
M30
