G04 #@! TF.GenerationSoftware,KiCad,Pcbnew,9.0.6*
G04 #@! TF.CreationDate,2026-01-16T12:51:44-08:00*
G04 #@! TF.ProjectId,UrchinCam_01,55726368-696e-4436-916d-5f30312e6b69,rev?*
G04 #@! TF.SameCoordinates,Original*
G04 #@! TF.FileFunction,Copper,L2,Inr*
G04 #@! TF.FilePolarity,Positive*
%FSLAX46Y46*%
G04 Gerber Fmt 4.6, Leading zero omitted, Abs format (unit mm)*
G04 Created by KiCad (PCBNEW 9.0.6) date 2026-01-16 12:51:44*
%MOMM*%
%LPD*%
G01*
G04 APERTURE LIST*
G04 Aperture macros list*
%AMRoundRect*
0 Rectangle with rounded corners*
0 $1 Rounding radius*
0 $2 $3 $4 $5 $6 $7 $8 $9 X,Y pos of 4 corners*
0 Add a 4 corners polygon primitive as box body*
4,1,4,$2,$3,$4,$5,$6,$7,$8,$9,$2,$3,0*
0 Add four circle primitives for the rounded corners*
1,1,$1+$1,$2,$3*
1,1,$1+$1,$4,$5*
1,1,$1+$1,$6,$7*
1,1,$1+$1,$8,$9*
0 Add four rect primitives between the rounded corners*
20,1,$1+$1,$2,$3,$4,$5,0*
20,1,$1+$1,$4,$5,$6,$7,0*
20,1,$1+$1,$6,$7,$8,$9,0*
20,1,$1+$1,$8,$9,$2,$3,0*%
G04 Aperture macros list end*
G04 #@! TA.AperFunction,Conductor*
%ADD10C,0.200000*%
G04 #@! TD*
G04 #@! TA.AperFunction,ComponentPad*
%ADD11RoundRect,0.250000X-0.750000X0.750000X-0.750000X-0.750000X0.750000X-0.750000X0.750000X0.750000X0*%
G04 #@! TD*
G04 #@! TA.AperFunction,ComponentPad*
%ADD12C,2.000000*%
G04 #@! TD*
G04 #@! TA.AperFunction,ViaPad*
%ADD13C,0.600000*%
G04 #@! TD*
G04 #@! TA.AperFunction,Conductor*
%ADD14C,3.500000*%
G04 #@! TD*
G04 #@! TA.AperFunction,Conductor*
%ADD15C,2.000000*%
G04 #@! TD*
G04 #@! TA.AperFunction,Conductor*
%ADD16C,3.000000*%
G04 #@! TD*
G04 #@! TA.AperFunction,Conductor*
%ADD17C,1.000000*%
G04 #@! TD*
G04 APERTURE END LIST*
D10*
X152300000Y-82000000D02*
X152300000Y-82500000D01*
X152200000Y-82600000D01*
X149200000Y-82600000D01*
X149200000Y-82200000D01*
X149900000Y-81500000D01*
X151800000Y-81500000D01*
X152300000Y-82000000D01*
G04 #@! TA.AperFunction,Conductor*
G36*
X152300000Y-82000000D02*
G01*
X152300000Y-82500000D01*
X152200000Y-82600000D01*
X149200000Y-82600000D01*
X149200000Y-82200000D01*
X149900000Y-81500000D01*
X151800000Y-81500000D01*
X152300000Y-82000000D01*
G37*
G04 #@! TD.AperFunction*
X140100000Y-127400000D02*
X137200000Y-127400000D01*
X136100000Y-126300000D01*
X136100000Y-125500000D01*
X136400000Y-125200000D01*
X140100000Y-125200000D01*
X140100000Y-127400000D01*
G04 #@! TA.AperFunction,Conductor*
G36*
X140100000Y-127400000D02*
G01*
X137200000Y-127400000D01*
X136100000Y-126300000D01*
X136100000Y-125500000D01*
X136400000Y-125200000D01*
X140100000Y-125200000D01*
X140100000Y-127400000D01*
G37*
G04 #@! TD.AperFunction*
D11*
X154960000Y-87200000D03*
D12*
X157500000Y-87200000D03*
X160040000Y-87200000D03*
D13*
X154100000Y-78800000D03*
X140300000Y-122200000D03*
X159400000Y-97000000D03*
X152400000Y-105300000D03*
X154500000Y-121500000D03*
X146200000Y-105400000D03*
X153000000Y-78800000D03*
X145000000Y-110700000D03*
X154700000Y-118600000D03*
X156600000Y-128100000D03*
X160100000Y-97000000D03*
X156400000Y-118700000D03*
X142700000Y-97600000D03*
X150400000Y-109000000D03*
X159900000Y-121300000D03*
X144900000Y-79200000D03*
X151700000Y-107700000D03*
X154200000Y-124900000D03*
X149497022Y-122974000D03*
X157000000Y-107500000D03*
X154800000Y-114000000D03*
X140600000Y-117400000D03*
X147890876Y-108303246D03*
X140100000Y-112300000D03*
X140600000Y-116700000D03*
X153100000Y-114000000D03*
X143700000Y-97600000D03*
X140300000Y-121500000D03*
X156900000Y-122800000D03*
X152400000Y-117200000D03*
X140300000Y-122900000D03*
X154100000Y-79700000D03*
X136300000Y-92600000D03*
X158900000Y-116100000D03*
X139400000Y-86100000D03*
X150400000Y-107700000D03*
X146900000Y-127000000D03*
X153000000Y-79700000D03*
X148300000Y-110500000D03*
X152700000Y-104400000D03*
X160135650Y-127528564D03*
X148400000Y-119800000D03*
X157000000Y-109700000D03*
X151700000Y-109000000D03*
X140100000Y-111600000D03*
X144900000Y-78500000D03*
X145700000Y-97500000D03*
X140000999Y-105400000D03*
X159800000Y-93500000D03*
X159800000Y-94400000D03*
X153200000Y-127600000D03*
X136400000Y-125900000D03*
X143900000Y-115700000D03*
X154000000Y-127500000D03*
X148000000Y-84000000D03*
X150000000Y-81900000D03*
X150900000Y-81900000D03*
X138200000Y-125900000D03*
X144600000Y-115700000D03*
X151700000Y-81900000D03*
X137300000Y-125900000D03*
X153400000Y-127000000D03*
X140000999Y-99600000D03*
X146000000Y-125100000D03*
X153300000Y-117200000D03*
X140500000Y-107567500D03*
X158600000Y-125200003D03*
X158400000Y-123400000D03*
X148500000Y-99700000D03*
X148500000Y-93400000D03*
X149252416Y-105828819D03*
X152800000Y-111100000D03*
X154124265Y-108924265D03*
X154100000Y-108100000D03*
X150750000Y-111200000D03*
X147942345Y-106657655D03*
X154100000Y-111200000D03*
X140900000Y-110900000D03*
X144700000Y-122100000D03*
X148500000Y-118800000D03*
X144700000Y-124600000D03*
X149200000Y-116950000D03*
X140500000Y-114500000D03*
X140500000Y-109400000D03*
X158400000Y-126100000D03*
X148400000Y-122700000D03*
X147500000Y-88500000D03*
X140300000Y-88700000D03*
X140100000Y-84000000D03*
X140300000Y-81400000D03*
X156200000Y-117800000D03*
X155600000Y-121500000D03*
X152500000Y-114600000D03*
X150817280Y-114690000D03*
X149600000Y-114700000D03*
X148400000Y-114700000D03*
X149008017Y-106590575D03*
X157700000Y-120799000D03*
X158600000Y-124400000D03*
X148761091Y-126561091D03*
X147500000Y-131000000D03*
X147700000Y-127050000D03*
X146400000Y-130700000D03*
X150400000Y-131100000D03*
X149221456Y-122203640D03*
X143050000Y-92755635D03*
X151238587Y-126936403D03*
X154800000Y-124000000D03*
X151000000Y-127700000D03*
X155300000Y-126100000D03*
X140700000Y-86500000D03*
X138800000Y-87900000D03*
X150200000Y-127700000D03*
X155300000Y-123200000D03*
X154600000Y-99705000D03*
X154600000Y-93405000D03*
D14*
X148300000Y-84100000D02*
X137750999Y-94649001D01*
D15*
X152000000Y-129200000D02*
X145300000Y-129200000D01*
D16*
X139471158Y-124901000D02*
X139501000Y-124901000D01*
D15*
X145000000Y-128900000D02*
X144999000Y-128899000D01*
D14*
X159700000Y-84100000D02*
X148300000Y-84100000D01*
D16*
X143500000Y-128900000D02*
X145000000Y-128900000D01*
D15*
X145300000Y-129200000D02*
X145000000Y-128900000D01*
D14*
X137750999Y-94649001D02*
X137750999Y-116200000D01*
D16*
X139501000Y-124901000D02*
X143500000Y-128900000D01*
D17*
X160040000Y-87200000D02*
X160040000Y-84440000D01*
D15*
X137750999Y-123900000D02*
X137750999Y-123149001D01*
D17*
X138250999Y-115700000D02*
X137750999Y-116200000D01*
D16*
X138470158Y-123900000D02*
X139471158Y-124901000D01*
D15*
X137750999Y-123149001D02*
X137800000Y-123100000D01*
D17*
X144600000Y-115700000D02*
X138250999Y-115700000D01*
D14*
X137750999Y-125450999D02*
X137750999Y-116200000D01*
D15*
X137800000Y-123100000D02*
X137800000Y-123900000D01*
D16*
X137800000Y-123900000D02*
X138470158Y-123900000D01*
D15*
X152000000Y-129200000D02*
X153600000Y-127600000D01*
D17*
X160040000Y-84440000D02*
X159700000Y-84100000D01*
G04 #@! TA.AperFunction,Conductor*
G36*
X140078876Y-71500501D02*
G01*
X140166715Y-71500500D01*
X140176440Y-71500882D01*
X140176987Y-71500925D01*
X140318219Y-71512037D01*
X140337428Y-71515080D01*
X140470962Y-71547137D01*
X140489461Y-71553147D01*
X140616342Y-71605701D01*
X140633669Y-71614530D01*
X140695962Y-71652702D01*
X140750761Y-71686282D01*
X140766503Y-71697719D01*
X140874447Y-71789910D01*
X140881591Y-71796514D01*
X140895865Y-71810786D01*
X141138076Y-72052997D01*
X141138089Y-72053011D01*
X141141201Y-72056123D01*
X141141202Y-72056124D01*
X141170426Y-72085348D01*
X141170457Y-72085405D01*
X141206745Y-72121692D01*
X141206745Y-72121693D01*
X141310977Y-72225924D01*
X141538872Y-72412948D01*
X141538876Y-72412951D01*
X141783998Y-72576733D01*
X141784000Y-72576734D01*
X142044003Y-72715705D01*
X142316374Y-72828522D01*
X142598493Y-72914098D01*
X142887641Y-72971609D01*
X143181033Y-73000502D01*
X143328439Y-73000500D01*
X159650333Y-73000500D01*
X159650872Y-73000501D01*
X159657475Y-73000529D01*
X159657475Y-73000530D01*
X159805762Y-73001175D01*
X160101026Y-72973304D01*
X160392103Y-72916458D01*
X160676158Y-72831190D01*
X160950421Y-72718331D01*
X161212221Y-72578981D01*
X161459007Y-72414498D01*
X161688373Y-72226485D01*
X161719873Y-72195001D01*
X161723462Y-72191416D01*
X161723580Y-72191339D01*
X161756991Y-72157928D01*
X161793258Y-72121660D01*
X161793259Y-72121661D01*
X161858815Y-72056105D01*
X161858816Y-72056103D01*
X161865876Y-72049043D01*
X161865882Y-72049036D01*
X162056075Y-71858843D01*
X162056088Y-71858835D01*
X162118263Y-71796656D01*
X162125307Y-71790143D01*
X162232803Y-71698242D01*
X162248422Y-71686869D01*
X162364761Y-71615347D01*
X162381956Y-71606544D01*
X162507995Y-71553985D01*
X162526363Y-71547959D01*
X162659038Y-71515639D01*
X162678115Y-71512544D01*
X162793608Y-71502957D01*
X162818103Y-71500925D01*
X162828359Y-71500500D01*
X163407289Y-71500500D01*
X163495932Y-71500500D01*
X163504042Y-71500765D01*
X163752895Y-71517075D01*
X163768951Y-71519190D01*
X164009530Y-71567044D01*
X164009535Y-71567045D01*
X164025201Y-71571243D01*
X164152724Y-71614531D01*
X164257480Y-71650091D01*
X164272457Y-71656294D01*
X164357532Y-71698248D01*
X164492460Y-71764787D01*
X164506507Y-71772897D01*
X164536972Y-71793253D01*
X164710464Y-71909177D01*
X164723328Y-71919048D01*
X164907749Y-72080781D01*
X164919218Y-72092250D01*
X165080951Y-72276670D01*
X165090825Y-72289539D01*
X165227102Y-72493493D01*
X165235212Y-72507539D01*
X165343702Y-72727534D01*
X165349909Y-72742520D01*
X165428756Y-72974797D01*
X165432954Y-72990464D01*
X165480807Y-73231035D01*
X165482924Y-73247116D01*
X165499233Y-73495940D01*
X165499499Y-73504050D01*
X165499499Y-99876000D01*
X165479814Y-99943039D01*
X165427010Y-99988794D01*
X165375499Y-100000000D01*
X160051362Y-100000000D01*
X159984323Y-99980315D01*
X159963681Y-99963681D01*
X159036319Y-99036319D01*
X159002834Y-98974996D01*
X159000000Y-98948638D01*
X159000000Y-95600000D01*
X157836319Y-94436319D01*
X157802834Y-94374996D01*
X157800000Y-94348638D01*
X157800000Y-93421153D01*
X158999500Y-93421153D01*
X158999500Y-93578846D01*
X159030261Y-93733489D01*
X159030264Y-93733501D01*
X159090604Y-93879177D01*
X159090605Y-93879179D01*
X159091899Y-93881115D01*
X159092264Y-93882282D01*
X159093476Y-93884549D01*
X159093045Y-93884778D01*
X159112773Y-93947794D01*
X159094285Y-94015173D01*
X159091899Y-94018885D01*
X159090605Y-94020820D01*
X159090604Y-94020822D01*
X159030264Y-94166498D01*
X159030261Y-94166510D01*
X158999500Y-94321153D01*
X158999500Y-94478846D01*
X159030261Y-94633489D01*
X159030264Y-94633501D01*
X159090602Y-94779172D01*
X159090609Y-94779185D01*
X159178210Y-94910288D01*
X159178213Y-94910292D01*
X159289707Y-95021786D01*
X159289711Y-95021789D01*
X159420814Y-95109390D01*
X159420827Y-95109397D01*
X159566498Y-95169735D01*
X159566503Y-95169737D01*
X159721153Y-95200499D01*
X159721156Y-95200500D01*
X159721158Y-95200500D01*
X159878844Y-95200500D01*
X159878845Y-95200499D01*
X160033497Y-95169737D01*
X160179179Y-95109394D01*
X160310289Y-95021789D01*
X160421789Y-94910289D01*
X160509394Y-94779179D01*
X160569737Y-94633497D01*
X160600500Y-94478842D01*
X160600500Y-94321158D01*
X160600500Y-94321155D01*
X160600499Y-94321153D01*
X160576499Y-94200500D01*
X160569737Y-94166503D01*
X160546082Y-94109394D01*
X160509397Y-94020827D01*
X160509394Y-94020822D01*
X160509394Y-94020821D01*
X160508103Y-94018889D01*
X160507737Y-94017723D01*
X160506525Y-94015454D01*
X160506955Y-94015223D01*
X160487226Y-93952214D01*
X160505710Y-93884834D01*
X160508100Y-93881115D01*
X160509394Y-93879179D01*
X160569737Y-93733497D01*
X160600500Y-93578842D01*
X160600500Y-93421158D01*
X160600500Y-93421155D01*
X160600499Y-93421153D01*
X160581603Y-93326158D01*
X160569737Y-93266503D01*
X160515193Y-93134820D01*
X160509397Y-93120827D01*
X160509390Y-93120814D01*
X160421789Y-92989711D01*
X160421786Y-92989707D01*
X160310292Y-92878213D01*
X160310288Y-92878210D01*
X160179185Y-92790609D01*
X160179172Y-92790602D01*
X160033501Y-92730264D01*
X160033489Y-92730261D01*
X159878845Y-92699500D01*
X159878842Y-92699500D01*
X159721158Y-92699500D01*
X159721155Y-92699500D01*
X159566510Y-92730261D01*
X159566498Y-92730264D01*
X159420827Y-92790602D01*
X159420814Y-92790609D01*
X159289711Y-92878210D01*
X159289707Y-92878213D01*
X159178213Y-92989707D01*
X159178210Y-92989711D01*
X159090609Y-93120814D01*
X159090602Y-93120827D01*
X159030264Y-93266498D01*
X159030261Y-93266510D01*
X158999500Y-93421153D01*
X157800000Y-93421153D01*
X157800000Y-90900000D01*
X156700000Y-89800000D01*
X147800000Y-89800000D01*
X147799999Y-89800000D01*
X147500000Y-90099999D01*
X147500000Y-90100000D01*
X147500000Y-102900000D01*
X147800000Y-103200000D01*
X156048638Y-103200000D01*
X156115677Y-103219685D01*
X156136319Y-103236319D01*
X160063681Y-107163681D01*
X160097166Y-107225004D01*
X160100000Y-107251362D01*
X160100000Y-108100000D01*
X160500000Y-108500000D01*
X165375499Y-108500000D01*
X165442538Y-108519685D01*
X165488293Y-108572489D01*
X165499499Y-108624000D01*
X165499499Y-132495933D01*
X165499234Y-132504043D01*
X165482924Y-132752883D01*
X165480806Y-132768964D01*
X165432953Y-133009535D01*
X165428755Y-133025202D01*
X165349908Y-133257478D01*
X165343701Y-133272464D01*
X165235211Y-133492460D01*
X165227101Y-133506507D01*
X165090824Y-133710460D01*
X165080950Y-133723328D01*
X164919217Y-133907749D01*
X164907748Y-133919218D01*
X164723328Y-134080950D01*
X164710459Y-134090824D01*
X164506505Y-134227101D01*
X164492459Y-134235211D01*
X164272464Y-134343701D01*
X164257478Y-134349908D01*
X164025201Y-134428755D01*
X164009534Y-134432953D01*
X163768963Y-134480806D01*
X163752882Y-134482923D01*
X163504029Y-134499234D01*
X163495919Y-134499500D01*
X138004067Y-134499500D01*
X137995957Y-134499235D01*
X137747116Y-134482925D01*
X137731035Y-134480807D01*
X137490464Y-134432954D01*
X137474797Y-134428756D01*
X137242520Y-134349909D01*
X137227534Y-134343702D01*
X137007539Y-134235212D01*
X136993493Y-134227102D01*
X136789539Y-134090825D01*
X136776670Y-134080951D01*
X136592250Y-133919218D01*
X136580781Y-133907749D01*
X136486724Y-133800498D01*
X136419045Y-133723325D01*
X136409174Y-133710460D01*
X136407935Y-133708606D01*
X136272897Y-133506507D01*
X136264787Y-133492460D01*
X136262359Y-133487537D01*
X136156294Y-133272457D01*
X136150090Y-133257478D01*
X136071243Y-133025201D01*
X136067045Y-133009535D01*
X136019190Y-132768953D01*
X136017075Y-132752895D01*
X136000763Y-132504024D01*
X136000499Y-132495919D01*
X136000499Y-131881995D01*
X138199500Y-131881995D01*
X138199500Y-132118004D01*
X138199501Y-132118020D01*
X138230306Y-132352010D01*
X138291394Y-132579993D01*
X138381714Y-132798045D01*
X138381719Y-132798056D01*
X138452677Y-132920957D01*
X138499727Y-133002450D01*
X138499729Y-133002453D01*
X138499730Y-133002454D01*
X138643406Y-133189697D01*
X138643412Y-133189704D01*
X138810295Y-133356587D01*
X138810302Y-133356593D01*
X138920306Y-133441001D01*
X138997550Y-133500273D01*
X139128918Y-133576118D01*
X139201943Y-133618280D01*
X139201948Y-133618282D01*
X139201951Y-133618284D01*
X139420007Y-133708606D01*
X139647986Y-133769693D01*
X139881989Y-133800500D01*
X139881996Y-133800500D01*
X140118004Y-133800500D01*
X140118011Y-133800500D01*
X140352014Y-133769693D01*
X140579993Y-133708606D01*
X140798049Y-133618284D01*
X141002450Y-133500273D01*
X141189699Y-133356592D01*
X141356592Y-133189699D01*
X141500273Y-133002450D01*
X141618284Y-132798049D01*
X141708606Y-132579993D01*
X141769693Y-132352014D01*
X141800500Y-132118011D01*
X141800500Y-131881989D01*
X141769693Y-131647986D01*
X141708606Y-131420007D01*
X141618284Y-131201951D01*
X141618282Y-131201948D01*
X141618280Y-131201943D01*
X141547405Y-131079185D01*
X141500273Y-130997550D01*
X141412671Y-130883385D01*
X141356593Y-130810302D01*
X141356587Y-130810295D01*
X141189704Y-130643412D01*
X141189697Y-130643406D01*
X141002454Y-130499730D01*
X141002453Y-130499729D01*
X141002450Y-130499727D01*
X140920957Y-130452677D01*
X140798056Y-130381719D01*
X140798045Y-130381714D01*
X140579993Y-130291394D01*
X140352010Y-130230306D01*
X140118020Y-130199501D01*
X140118017Y-130199500D01*
X140118011Y-130199500D01*
X139881989Y-130199500D01*
X139881983Y-130199500D01*
X139881979Y-130199501D01*
X139647989Y-130230306D01*
X139420006Y-130291394D01*
X139201954Y-130381714D01*
X139201943Y-130381719D01*
X138997545Y-130499730D01*
X138810302Y-130643406D01*
X138810295Y-130643412D01*
X138643412Y-130810295D01*
X138643406Y-130810302D01*
X138499730Y-130997545D01*
X138381719Y-131201943D01*
X138381714Y-131201954D01*
X138291394Y-131420006D01*
X138230306Y-131647989D01*
X138199501Y-131881979D01*
X138199500Y-131881995D01*
X136000499Y-131881995D01*
X136000499Y-127356167D01*
X136020184Y-127289128D01*
X136072988Y-127243373D01*
X136142146Y-127233429D01*
X136205702Y-127262454D01*
X136212180Y-127268486D01*
X136771841Y-127828148D01*
X136771847Y-127828153D01*
X136897250Y-127924378D01*
X137043285Y-127984868D01*
X137200000Y-128005500D01*
X139725004Y-128005500D01*
X139792043Y-128025185D01*
X139812685Y-128041819D01*
X142178143Y-130407278D01*
X142178150Y-130407284D01*
X142265746Y-130474498D01*
X142265747Y-130474500D01*
X142386197Y-130566924D01*
X142591285Y-130685331D01*
X142613299Y-130698041D01*
X142613300Y-130698041D01*
X142613303Y-130698043D01*
X142855581Y-130798398D01*
X143108884Y-130866271D01*
X143238882Y-130883385D01*
X143368880Y-130900500D01*
X143368887Y-130900500D01*
X145131113Y-130900500D01*
X145131120Y-130900500D01*
X145391116Y-130866270D01*
X145477587Y-130843100D01*
X145547433Y-130844763D01*
X145605295Y-130883925D01*
X145626376Y-130928307D01*
X145628494Y-130927665D01*
X145630264Y-130933501D01*
X145690602Y-131079172D01*
X145690609Y-131079185D01*
X145778210Y-131210288D01*
X145778213Y-131210292D01*
X145889707Y-131321786D01*
X145889711Y-131321789D01*
X146020814Y-131409390D01*
X146020827Y-131409397D01*
X146147549Y-131461886D01*
X146166503Y-131469737D01*
X146321153Y-131500499D01*
X146321156Y-131500500D01*
X146321158Y-131500500D01*
X146478844Y-131500500D01*
X146478845Y-131500499D01*
X146633497Y-131469737D01*
X146709924Y-131438079D01*
X146779392Y-131430611D01*
X146841872Y-131461886D01*
X146860478Y-131483751D01*
X146878207Y-131510284D01*
X146878213Y-131510292D01*
X146989707Y-131621786D01*
X146989711Y-131621789D01*
X147120814Y-131709390D01*
X147120827Y-131709397D01*
X147266498Y-131769735D01*
X147266503Y-131769737D01*
X147421153Y-131800499D01*
X147421156Y-131800500D01*
X147421158Y-131800500D01*
X147578844Y-131800500D01*
X147578845Y-131800499D01*
X147733497Y-131769737D01*
X147879179Y-131709394D01*
X148010289Y-131621789D01*
X148121789Y-131510289D01*
X148209394Y-131379179D01*
X148269737Y-131233497D01*
X148300500Y-131078842D01*
X148300500Y-130921158D01*
X148300500Y-130921155D01*
X148300499Y-130921153D01*
X148286086Y-130848691D01*
X148292313Y-130779100D01*
X148335176Y-130723922D01*
X148401066Y-130700678D01*
X148407703Y-130700500D01*
X149513445Y-130700500D01*
X149580484Y-130720185D01*
X149626239Y-130772989D01*
X149636183Y-130842147D01*
X149631159Y-130860411D01*
X149632031Y-130860676D01*
X149630261Y-130866510D01*
X149599500Y-131021153D01*
X149599500Y-131178846D01*
X149630261Y-131333489D01*
X149630264Y-131333501D01*
X149690602Y-131479172D01*
X149690609Y-131479185D01*
X149778210Y-131610288D01*
X149778213Y-131610292D01*
X149889707Y-131721786D01*
X149889711Y-131721789D01*
X150020814Y-131809390D01*
X150020827Y-131809397D01*
X150166498Y-131869735D01*
X150166503Y-131869737D01*
X150321153Y-131900499D01*
X150321156Y-131900500D01*
X150321158Y-131900500D01*
X150478844Y-131900500D01*
X150478845Y-131900499D01*
X150571871Y-131881995D01*
X161199500Y-131881995D01*
X161199500Y-132118004D01*
X161199501Y-132118020D01*
X161230306Y-132352010D01*
X161291394Y-132579993D01*
X161381714Y-132798045D01*
X161381719Y-132798056D01*
X161452677Y-132920957D01*
X161499727Y-133002450D01*
X161499729Y-133002453D01*
X161499730Y-133002454D01*
X161643406Y-133189697D01*
X161643412Y-133189704D01*
X161810295Y-133356587D01*
X161810302Y-133356593D01*
X161920306Y-133441001D01*
X161997550Y-133500273D01*
X162128918Y-133576118D01*
X162201943Y-133618280D01*
X162201948Y-133618282D01*
X162201951Y-133618284D01*
X162420007Y-133708606D01*
X162647986Y-133769693D01*
X162881989Y-133800500D01*
X162881996Y-133800500D01*
X163118004Y-133800500D01*
X163118011Y-133800500D01*
X163352014Y-133769693D01*
X163579993Y-133708606D01*
X163798049Y-133618284D01*
X164002450Y-133500273D01*
X164189699Y-133356592D01*
X164356592Y-133189699D01*
X164500273Y-133002450D01*
X164618284Y-132798049D01*
X164708606Y-132579993D01*
X164769693Y-132352014D01*
X164800500Y-132118011D01*
X164800500Y-131881989D01*
X164769693Y-131647986D01*
X164708606Y-131420007D01*
X164618284Y-131201951D01*
X164618282Y-131201948D01*
X164618280Y-131201943D01*
X164547405Y-131079185D01*
X164500273Y-130997550D01*
X164412671Y-130883385D01*
X164356593Y-130810302D01*
X164356587Y-130810295D01*
X164189704Y-130643412D01*
X164189697Y-130643406D01*
X164002454Y-130499730D01*
X164002453Y-130499729D01*
X164002450Y-130499727D01*
X163920957Y-130452677D01*
X163798056Y-130381719D01*
X163798045Y-130381714D01*
X163579993Y-130291394D01*
X163352010Y-130230306D01*
X163118020Y-130199501D01*
X163118017Y-130199500D01*
X163118011Y-130199500D01*
X162881989Y-130199500D01*
X162881983Y-130199500D01*
X162881979Y-130199501D01*
X162647989Y-130230306D01*
X162420006Y-130291394D01*
X162201954Y-130381714D01*
X162201943Y-130381719D01*
X161997545Y-130499730D01*
X161810302Y-130643406D01*
X161810295Y-130643412D01*
X161643412Y-130810295D01*
X161643406Y-130810302D01*
X161499730Y-130997545D01*
X161381719Y-131201943D01*
X161381714Y-131201954D01*
X161291394Y-131420006D01*
X161230306Y-131647989D01*
X161199501Y-131881979D01*
X161199500Y-131881995D01*
X150571871Y-131881995D01*
X150633497Y-131869737D01*
X150779179Y-131809394D01*
X150838529Y-131769738D01*
X150852915Y-131760124D01*
X150910289Y-131721789D01*
X151021789Y-131610289D01*
X151109394Y-131479179D01*
X151169737Y-131333497D01*
X151200500Y-131178842D01*
X151200500Y-131021158D01*
X151200500Y-131021155D01*
X151200499Y-131021153D01*
X151183063Y-130933497D01*
X151169737Y-130866503D01*
X151169732Y-130866492D01*
X151167969Y-130860676D01*
X151170720Y-130859841D01*
X151164497Y-130802641D01*
X151195691Y-130740122D01*
X151255734Y-130704392D01*
X151286555Y-130700500D01*
X152118097Y-130700500D01*
X152351368Y-130663553D01*
X152413355Y-130643412D01*
X152575992Y-130590568D01*
X152786434Y-130483343D01*
X152977510Y-130344517D01*
X154744518Y-128577510D01*
X154883343Y-128386433D01*
X154990568Y-128175992D01*
X155063553Y-127951368D01*
X155083068Y-127828154D01*
X155100500Y-127718097D01*
X155100500Y-127481902D01*
X155076572Y-127330829D01*
X155063553Y-127248631D01*
X154997107Y-127044135D01*
X154995113Y-126974299D01*
X155031193Y-126914466D01*
X155093894Y-126883637D01*
X155139230Y-126884204D01*
X155221153Y-126900499D01*
X155221156Y-126900500D01*
X155221158Y-126900500D01*
X155378844Y-126900500D01*
X155378845Y-126900499D01*
X155533497Y-126869737D01*
X155679179Y-126809394D01*
X155810289Y-126721789D01*
X155921789Y-126610289D01*
X156009394Y-126479179D01*
X156069737Y-126333497D01*
X156100500Y-126178842D01*
X156100500Y-126021158D01*
X156100500Y-126021155D01*
X156100499Y-126021153D01*
X156084218Y-125939302D01*
X156069737Y-125866503D01*
X156067076Y-125860079D01*
X156009397Y-125720827D01*
X156009390Y-125720814D01*
X155921789Y-125589711D01*
X155921786Y-125589707D01*
X155810292Y-125478213D01*
X155810288Y-125478210D01*
X155679185Y-125390609D01*
X155679172Y-125390602D01*
X155533501Y-125330264D01*
X155533489Y-125330261D01*
X155378845Y-125299500D01*
X155378842Y-125299500D01*
X155221158Y-125299500D01*
X155221155Y-125299500D01*
X155066510Y-125330261D01*
X155066498Y-125330264D01*
X154920827Y-125390602D01*
X154920814Y-125390609D01*
X154789711Y-125478210D01*
X154789707Y-125478213D01*
X154678213Y-125589707D01*
X154678210Y-125589711D01*
X154590609Y-125720814D01*
X154590602Y-125720827D01*
X154530264Y-125866498D01*
X154530261Y-125866510D01*
X154499500Y-126021153D01*
X154499500Y-126171917D01*
X154479815Y-126238956D01*
X154427011Y-126284711D01*
X154357853Y-126294655D01*
X154319205Y-126282402D01*
X154175994Y-126209433D01*
X154175993Y-126209432D01*
X154175992Y-126209432D01*
X153951369Y-126136447D01*
X153951367Y-126136446D01*
X153951365Y-126136446D01*
X153718097Y-126099500D01*
X153718092Y-126099500D01*
X153481908Y-126099500D01*
X153481903Y-126099500D01*
X153248631Y-126136446D01*
X153024003Y-126209433D01*
X152813563Y-126316659D01*
X152622496Y-126455476D01*
X152622491Y-126455480D01*
X152233210Y-126844760D01*
X152171887Y-126878245D01*
X152102195Y-126873261D01*
X152046262Y-126831389D01*
X152023912Y-126781270D01*
X152008325Y-126702913D01*
X152008325Y-126702911D01*
X152008324Y-126702906D01*
X151982240Y-126639933D01*
X151947984Y-126557230D01*
X151947977Y-126557217D01*
X151860376Y-126426114D01*
X151860373Y-126426110D01*
X151748879Y-126314616D01*
X151748875Y-126314613D01*
X151617772Y-126227012D01*
X151617759Y-126227005D01*
X151472088Y-126166667D01*
X151472076Y-126166664D01*
X151317432Y-126135903D01*
X151317429Y-126135903D01*
X151159745Y-126135903D01*
X151159742Y-126135903D01*
X151005097Y-126166664D01*
X151005085Y-126166667D01*
X150859414Y-126227005D01*
X150859401Y-126227012D01*
X150728298Y-126314613D01*
X150728294Y-126314616D01*
X150616800Y-126426110D01*
X150616797Y-126426114D01*
X150529196Y-126557217D01*
X150529189Y-126557230D01*
X150468851Y-126702901D01*
X150468848Y-126702911D01*
X150448192Y-126806757D01*
X150415807Y-126868668D01*
X150355091Y-126903242D01*
X150302384Y-126904182D01*
X150278846Y-126899500D01*
X150278842Y-126899500D01*
X150121158Y-126899500D01*
X150121155Y-126899500D01*
X149966510Y-126930261D01*
X149966498Y-126930264D01*
X149820827Y-126990602D01*
X149820814Y-126990609D01*
X149689711Y-127078210D01*
X149689706Y-127078214D01*
X149641512Y-127126408D01*
X149580189Y-127159892D01*
X149510497Y-127154907D01*
X149508531Y-127153435D01*
X149530942Y-127213517D01*
X149516091Y-127281790D01*
X149510361Y-127291253D01*
X149490611Y-127320811D01*
X149490602Y-127320827D01*
X149430264Y-127466498D01*
X149430261Y-127466508D01*
X149403769Y-127599692D01*
X149371384Y-127661603D01*
X149310668Y-127696177D01*
X149282152Y-127699500D01*
X148460759Y-127699500D01*
X148453760Y-127697444D01*
X148446570Y-127698686D01*
X148420682Y-127687732D01*
X148393720Y-127679815D01*
X148388942Y-127674302D01*
X148382224Y-127671459D01*
X148366367Y-127648248D01*
X148347965Y-127627011D01*
X148346926Y-127619791D01*
X148342811Y-127613767D01*
X148342020Y-127585671D01*
X148338021Y-127557853D01*
X148341003Y-127549499D01*
X148340847Y-127543925D01*
X148351199Y-127520943D01*
X148354600Y-127511420D01*
X148356074Y-127508976D01*
X148409394Y-127429179D01*
X148420659Y-127401979D01*
X148425487Y-127393983D01*
X148444629Y-127376429D01*
X148460925Y-127356208D01*
X148469962Y-127353199D01*
X148476983Y-127346762D01*
X148502577Y-127342343D01*
X148527219Y-127334142D01*
X148542817Y-127335397D01*
X148545835Y-127334877D01*
X148548063Y-127335820D01*
X148555836Y-127336445D01*
X148576833Y-127340622D01*
X148682246Y-127361591D01*
X148682249Y-127361591D01*
X148839935Y-127361591D01*
X148839936Y-127361590D01*
X148994588Y-127330828D01*
X149140270Y-127270485D01*
X149271380Y-127182880D01*
X149319576Y-127134684D01*
X149380899Y-127101198D01*
X149450590Y-127106182D01*
X149452557Y-127107654D01*
X149430148Y-127047571D01*
X149445000Y-126979298D01*
X149450725Y-126969842D01*
X149470485Y-126940270D01*
X149530828Y-126794588D01*
X149561591Y-126639933D01*
X149561591Y-126482249D01*
X149561591Y-126482246D01*
X149561590Y-126482244D01*
X149532002Y-126333497D01*
X149530828Y-126327594D01*
X149517184Y-126294655D01*
X149470488Y-126181918D01*
X149470481Y-126181905D01*
X149382880Y-126050802D01*
X149382877Y-126050798D01*
X149271383Y-125939304D01*
X149271379Y-125939301D01*
X149140276Y-125851700D01*
X149140263Y-125851693D01*
X148994592Y-125791355D01*
X148994580Y-125791352D01*
X148839936Y-125760591D01*
X148839933Y-125760591D01*
X148682249Y-125760591D01*
X148682246Y-125760591D01*
X148527601Y-125791352D01*
X148527589Y-125791355D01*
X148381918Y-125851693D01*
X148381905Y-125851700D01*
X148250802Y-125939301D01*
X148250798Y-125939304D01*
X148139304Y-126050798D01*
X148139301Y-126050802D01*
X148051700Y-126181905D01*
X148051695Y-126181914D01*
X148044004Y-126200483D01*
X148000162Y-126254885D01*
X147933867Y-126276948D01*
X147905253Y-126274644D01*
X147778846Y-126249500D01*
X147778842Y-126249500D01*
X147621158Y-126249500D01*
X147621155Y-126249500D01*
X147466510Y-126280261D01*
X147466498Y-126280264D01*
X147320827Y-126340602D01*
X147320814Y-126340609D01*
X147189711Y-126428210D01*
X147189707Y-126428213D01*
X147078213Y-126539707D01*
X147078210Y-126539711D01*
X146990609Y-126670814D01*
X146990602Y-126670827D01*
X146930264Y-126816498D01*
X146930261Y-126816510D01*
X146899500Y-126971153D01*
X146899500Y-127128846D01*
X146930261Y-127283489D01*
X146930264Y-127283501D01*
X146990602Y-127429172D01*
X146990609Y-127429184D01*
X147042343Y-127506609D01*
X147063221Y-127573286D01*
X147044737Y-127640666D01*
X146992758Y-127687357D01*
X146939241Y-127699500D01*
X146661548Y-127699500D01*
X146594509Y-127679815D01*
X146563173Y-127650987D01*
X146561071Y-127648248D01*
X146507282Y-127578149D01*
X146507281Y-127578148D01*
X146507274Y-127578140D01*
X146321860Y-127392726D01*
X146321851Y-127392718D01*
X146113803Y-127233075D01*
X145886700Y-127101958D01*
X145886690Y-127101953D01*
X145644428Y-127001605D01*
X145644421Y-127001603D01*
X145644419Y-127001602D01*
X145391116Y-126933730D01*
X145333339Y-126926123D01*
X145131127Y-126899500D01*
X145131120Y-126899500D01*
X144379996Y-126899500D01*
X144312957Y-126879815D01*
X144292315Y-126863181D01*
X142031882Y-124602747D01*
X141950288Y-124521153D01*
X143899500Y-124521153D01*
X143899500Y-124678846D01*
X143930261Y-124833489D01*
X143930264Y-124833501D01*
X143990602Y-124979172D01*
X143990609Y-124979185D01*
X144078210Y-125110288D01*
X144078213Y-125110292D01*
X144189707Y-125221786D01*
X144189711Y-125221789D01*
X144320814Y-125309390D01*
X144320827Y-125309397D01*
X144466498Y-125369735D01*
X144466503Y-125369737D01*
X144621153Y-125400499D01*
X144621156Y-125400500D01*
X144621158Y-125400500D01*
X144778844Y-125400500D01*
X144778845Y-125400499D01*
X144933497Y-125369737D01*
X144989120Y-125346697D01*
X145084808Y-125307063D01*
X145085898Y-125309694D01*
X145142316Y-125297886D01*
X145207587Y-125322818D01*
X145247058Y-125374045D01*
X145290602Y-125479172D01*
X145290609Y-125479185D01*
X145378210Y-125610288D01*
X145378213Y-125610292D01*
X145489707Y-125721786D01*
X145489711Y-125721789D01*
X145620814Y-125809390D01*
X145620827Y-125809397D01*
X145758683Y-125866498D01*
X145766503Y-125869737D01*
X145921153Y-125900499D01*
X145921156Y-125900500D01*
X145921158Y-125900500D01*
X146078844Y-125900500D01*
X146078845Y-125900499D01*
X146233497Y-125869737D01*
X146379179Y-125809394D01*
X146510289Y-125721789D01*
X146621789Y-125610289D01*
X146709394Y-125479179D01*
X146769737Y-125333497D01*
X146800500Y-125178842D01*
X146800500Y-125021158D01*
X146800500Y-125021155D01*
X146800499Y-125021153D01*
X146769738Y-124866510D01*
X146769737Y-124866503D01*
X146742398Y-124800500D01*
X146709397Y-124720827D01*
X146709390Y-124720814D01*
X146621789Y-124589711D01*
X146621786Y-124589707D01*
X146510292Y-124478213D01*
X146510288Y-124478210D01*
X146379185Y-124390609D01*
X146379172Y-124390602D01*
X146233501Y-124330264D01*
X146233489Y-124330261D01*
X146078845Y-124299500D01*
X146078842Y-124299500D01*
X145921158Y-124299500D01*
X145921155Y-124299500D01*
X145766510Y-124330261D01*
X145766498Y-124330264D01*
X145615193Y-124392937D01*
X145614133Y-124390379D01*
X145557251Y-124402079D01*
X145492068Y-124376919D01*
X145452942Y-124325957D01*
X145409394Y-124220821D01*
X145409390Y-124220814D01*
X145321789Y-124089711D01*
X145321786Y-124089707D01*
X145210292Y-123978213D01*
X145210288Y-123978210D01*
X145124897Y-123921153D01*
X153999500Y-123921153D01*
X153999500Y-124078846D01*
X154030261Y-124233489D01*
X154030264Y-124233501D01*
X154090602Y-124379172D01*
X154090609Y-124379185D01*
X154178210Y-124510288D01*
X154178213Y-124510292D01*
X154289707Y-124621786D01*
X154289711Y-124621789D01*
X154420814Y-124709390D01*
X154420827Y-124709397D01*
X154525007Y-124752549D01*
X154566503Y-124769737D01*
X154718649Y-124800001D01*
X154721153Y-124800499D01*
X154721156Y-124800500D01*
X154721158Y-124800500D01*
X154878844Y-124800500D01*
X154878845Y-124800499D01*
X155033497Y-124769737D01*
X155151592Y-124720821D01*
X155179172Y-124709397D01*
X155179172Y-124709396D01*
X155179179Y-124709394D01*
X155310289Y-124621789D01*
X155421789Y-124510289D01*
X155509394Y-124379179D01*
X155569737Y-124233497D01*
X155600500Y-124078842D01*
X155600500Y-124024837D01*
X155620185Y-123957798D01*
X155672989Y-123912043D01*
X155676986Y-123910302D01*
X155679179Y-123909394D01*
X155810289Y-123821789D01*
X155921789Y-123710289D01*
X156009394Y-123579179D01*
X156069737Y-123433497D01*
X156084715Y-123358194D01*
X156092084Y-123321153D01*
X157599500Y-123321153D01*
X157599500Y-123478846D01*
X157630261Y-123633489D01*
X157630264Y-123633501D01*
X157690602Y-123779172D01*
X157690609Y-123779185D01*
X157778210Y-123910288D01*
X157778213Y-123910292D01*
X157831472Y-123963551D01*
X157864957Y-124024874D01*
X157859973Y-124094566D01*
X157858353Y-124098682D01*
X157830264Y-124166497D01*
X157830261Y-124166505D01*
X157799500Y-124321153D01*
X157799500Y-124478846D01*
X157830261Y-124633489D01*
X157830264Y-124633501D01*
X157879575Y-124752549D01*
X157887044Y-124822018D01*
X157879575Y-124847453D01*
X157830264Y-124966501D01*
X157830261Y-124966513D01*
X157799500Y-125121156D01*
X157799500Y-125278849D01*
X157830261Y-125433492D01*
X157832031Y-125439327D01*
X157830066Y-125439922D01*
X157836530Y-125500081D01*
X157805251Y-125562558D01*
X157802186Y-125565734D01*
X157778213Y-125589708D01*
X157778208Y-125589714D01*
X157690609Y-125720814D01*
X157690602Y-125720827D01*
X157630264Y-125866498D01*
X157630261Y-125866510D01*
X157599500Y-126021153D01*
X157599500Y-126178846D01*
X157630261Y-126333489D01*
X157630264Y-126333501D01*
X157690602Y-126479172D01*
X157690609Y-126479185D01*
X157778210Y-126610288D01*
X157778213Y-126610292D01*
X157889707Y-126721786D01*
X157889711Y-126721789D01*
X158020814Y-126809390D01*
X158020827Y-126809397D01*
X158137107Y-126857561D01*
X158166503Y-126869737D01*
X158316131Y-126899500D01*
X158321153Y-126900499D01*
X158321156Y-126900500D01*
X158321158Y-126900500D01*
X158478844Y-126900500D01*
X158478845Y-126900499D01*
X158633497Y-126869737D01*
X158779179Y-126809394D01*
X158910289Y-126721789D01*
X159021789Y-126610289D01*
X159109394Y-126479179D01*
X159169737Y-126333497D01*
X159200500Y-126178842D01*
X159200500Y-126021158D01*
X159200500Y-126021155D01*
X159200499Y-126021153D01*
X159184218Y-125939302D01*
X159169737Y-125866503D01*
X159169732Y-125866492D01*
X159167969Y-125860676D01*
X159169933Y-125860079D01*
X159163468Y-125799927D01*
X159194743Y-125737448D01*
X159197770Y-125734310D01*
X159221789Y-125710292D01*
X159309394Y-125579182D01*
X159369737Y-125433500D01*
X159400500Y-125278845D01*
X159400500Y-125121161D01*
X159400500Y-125121158D01*
X159400499Y-125121156D01*
X159372259Y-124979185D01*
X159369737Y-124966506D01*
X159320423Y-124847452D01*
X159312955Y-124777984D01*
X159320424Y-124752549D01*
X159369737Y-124633497D01*
X159400500Y-124478842D01*
X159400500Y-124321158D01*
X159400500Y-124321155D01*
X159400499Y-124321153D01*
X159380543Y-124220827D01*
X159369737Y-124166503D01*
X159337929Y-124089711D01*
X159309397Y-124020827D01*
X159309390Y-124020814D01*
X159221789Y-123889711D01*
X159221786Y-123889707D01*
X159168526Y-123836447D01*
X159135041Y-123775124D01*
X159140025Y-123705432D01*
X159141630Y-123701351D01*
X159169737Y-123633497D01*
X159200500Y-123478842D01*
X159200500Y-123321158D01*
X159200500Y-123321155D01*
X159200499Y-123321153D01*
X159194246Y-123289718D01*
X159169737Y-123166503D01*
X159150955Y-123121158D01*
X159109397Y-123020827D01*
X159109390Y-123020814D01*
X159021789Y-122889711D01*
X159021786Y-122889707D01*
X158910292Y-122778213D01*
X158910288Y-122778210D01*
X158779185Y-122690609D01*
X158779172Y-122690602D01*
X158633501Y-122630264D01*
X158633489Y-122630261D01*
X158478845Y-122599500D01*
X158478842Y-122599500D01*
X158321158Y-122599500D01*
X158321155Y-122599500D01*
X158166510Y-122630261D01*
X158166498Y-122630264D01*
X158020827Y-122690602D01*
X158020814Y-122690609D01*
X157889711Y-122778210D01*
X157889707Y-122778213D01*
X157778213Y-122889707D01*
X157778210Y-122889711D01*
X157690609Y-123020814D01*
X157690602Y-123020827D01*
X157630264Y-123166498D01*
X157630261Y-123166510D01*
X157599500Y-123321153D01*
X156092084Y-123321153D01*
X156098107Y-123290875D01*
X156098107Y-123290874D01*
X156100500Y-123278844D01*
X156100500Y-123121155D01*
X156100499Y-123121153D01*
X156092148Y-123079172D01*
X156069737Y-122966503D01*
X156042398Y-122900500D01*
X156009397Y-122820827D01*
X156009390Y-122820814D01*
X155921789Y-122689711D01*
X155921786Y-122689707D01*
X155810292Y-122578213D01*
X155810288Y-122578210D01*
X155708767Y-122510375D01*
X155663962Y-122456762D01*
X155655255Y-122387437D01*
X155685410Y-122324410D01*
X155744853Y-122287691D01*
X155753467Y-122285656D01*
X155833497Y-122269737D01*
X155979179Y-122209394D01*
X156110289Y-122121789D01*
X156221789Y-122010289D01*
X156309394Y-121879179D01*
X156369737Y-121733497D01*
X156400500Y-121578842D01*
X156400500Y-121421158D01*
X156400500Y-121421155D01*
X156400499Y-121421153D01*
X156378248Y-121309292D01*
X156369737Y-121266503D01*
X156333155Y-121178185D01*
X156309397Y-121120827D01*
X156309390Y-121120814D01*
X156221789Y-120989711D01*
X156221786Y-120989707D01*
X156110292Y-120878213D01*
X156110288Y-120878210D01*
X156018933Y-120817168D01*
X155979185Y-120790609D01*
X155979172Y-120790602D01*
X155833501Y-120730264D01*
X155833489Y-120730261D01*
X155782673Y-120720153D01*
X156899500Y-120720153D01*
X156899500Y-120877846D01*
X156930261Y-121032489D01*
X156930264Y-121032501D01*
X156990602Y-121178172D01*
X156990609Y-121178185D01*
X157078210Y-121309288D01*
X157078213Y-121309292D01*
X157189707Y-121420786D01*
X157189711Y-121420789D01*
X157320814Y-121508390D01*
X157320827Y-121508397D01*
X157466498Y-121568735D01*
X157466503Y-121568737D01*
X157571926Y-121589707D01*
X157621153Y-121599499D01*
X157621156Y-121599500D01*
X157621158Y-121599500D01*
X157778844Y-121599500D01*
X157778845Y-121599499D01*
X157933497Y-121568737D01*
X158079179Y-121508394D01*
X158210289Y-121420789D01*
X158321789Y-121309289D01*
X158409394Y-121178179D01*
X158469737Y-121032497D01*
X158500500Y-120877842D01*
X158500500Y-120720158D01*
X158500500Y-120720155D01*
X158500499Y-120720153D01*
X158469738Y-120565510D01*
X158469737Y-120565503D01*
X158469735Y-120565498D01*
X158409397Y-120419827D01*
X158409390Y-120419814D01*
X158321789Y-120288711D01*
X158321786Y-120288707D01*
X158210292Y-120177213D01*
X158210288Y-120177210D01*
X158079185Y-120089609D01*
X158079172Y-120089602D01*
X157933501Y-120029264D01*
X157933489Y-120029261D01*
X157778845Y-119998500D01*
X157778842Y-119998500D01*
X157621158Y-119998500D01*
X157621155Y-119998500D01*
X157466510Y-120029261D01*
X157466498Y-120029264D01*
X157320827Y-120089602D01*
X157320814Y-120089609D01*
X157189711Y-120177210D01*
X157189707Y-120177213D01*
X157078213Y-120288707D01*
X157078210Y-120288711D01*
X156990609Y-120419814D01*
X156990602Y-120419827D01*
X156930264Y-120565498D01*
X156930261Y-120565510D01*
X156899500Y-120720153D01*
X155782673Y-120720153D01*
X155678845Y-120699500D01*
X155678842Y-120699500D01*
X155521158Y-120699500D01*
X155521155Y-120699500D01*
X155366510Y-120730261D01*
X155366498Y-120730264D01*
X155220827Y-120790602D01*
X155220814Y-120790609D01*
X155089711Y-120878210D01*
X155089707Y-120878213D01*
X154978213Y-120989707D01*
X154978210Y-120989711D01*
X154890609Y-121120814D01*
X154890602Y-121120827D01*
X154830264Y-121266498D01*
X154830261Y-121266510D01*
X154799500Y-121421153D01*
X154799500Y-121578846D01*
X154830261Y-121733489D01*
X154830264Y-121733501D01*
X154890602Y-121879172D01*
X154890609Y-121879185D01*
X154978210Y-122010288D01*
X154978213Y-122010292D01*
X155089707Y-122121786D01*
X155089711Y-122121789D01*
X155191232Y-122189624D01*
X155236037Y-122243236D01*
X155244744Y-122312561D01*
X155214589Y-122375589D01*
X155155146Y-122412308D01*
X155146533Y-122414343D01*
X155066508Y-122430261D01*
X155066498Y-122430264D01*
X154920827Y-122490602D01*
X154920814Y-122490609D01*
X154789711Y-122578210D01*
X154789707Y-122578213D01*
X154678213Y-122689707D01*
X154678210Y-122689711D01*
X154590609Y-122820814D01*
X154590602Y-122820827D01*
X154530264Y-122966498D01*
X154530261Y-122966510D01*
X154499500Y-123121153D01*
X154499500Y-123175161D01*
X154479815Y-123242200D01*
X154427011Y-123287955D01*
X154422962Y-123289718D01*
X154420830Y-123290601D01*
X154420814Y-123290609D01*
X154289711Y-123378210D01*
X154289707Y-123378213D01*
X154178213Y-123489707D01*
X154178210Y-123489711D01*
X154090609Y-123620814D01*
X154090602Y-123620827D01*
X154030264Y-123766498D01*
X154030261Y-123766510D01*
X153999500Y-123921153D01*
X145124897Y-123921153D01*
X145079185Y-123890609D01*
X145079172Y-123890602D01*
X144933501Y-123830264D01*
X144933489Y-123830261D01*
X144778845Y-123799500D01*
X144778842Y-123799500D01*
X144621158Y-123799500D01*
X144621155Y-123799500D01*
X144466510Y-123830261D01*
X144466498Y-123830264D01*
X144320827Y-123890602D01*
X144320814Y-123890609D01*
X144189711Y-123978210D01*
X144189707Y-123978213D01*
X144078213Y-124089707D01*
X144078210Y-124089711D01*
X143990609Y-124220814D01*
X143990602Y-124220827D01*
X143930264Y-124366498D01*
X143930261Y-124366510D01*
X143899500Y-124521153D01*
X141950288Y-124521153D01*
X140822856Y-123393721D01*
X140822849Y-123393715D01*
X140701041Y-123300249D01*
X140688846Y-123289554D01*
X140037818Y-122638526D01*
X140004333Y-122577203D01*
X140001499Y-122550845D01*
X140001499Y-122021153D01*
X143899500Y-122021153D01*
X143899500Y-122178846D01*
X143930261Y-122333489D01*
X143930264Y-122333501D01*
X143990602Y-122479172D01*
X143990609Y-122479185D01*
X144078210Y-122610288D01*
X144078213Y-122610292D01*
X144189707Y-122721786D01*
X144189711Y-122721789D01*
X144320814Y-122809390D01*
X144320827Y-122809397D01*
X144466498Y-122869735D01*
X144466503Y-122869737D01*
X144621153Y-122900499D01*
X144621156Y-122900500D01*
X144621158Y-122900500D01*
X144778844Y-122900500D01*
X144778845Y-122900499D01*
X144933497Y-122869737D01*
X145051592Y-122820821D01*
X145079172Y-122809397D01*
X145079172Y-122809396D01*
X145079179Y-122809394D01*
X145210289Y-122721789D01*
X145310925Y-122621153D01*
X147599500Y-122621153D01*
X147599500Y-122778846D01*
X147630261Y-122933489D01*
X147630264Y-122933501D01*
X147690602Y-123079172D01*
X147690609Y-123079185D01*
X147778210Y-123210288D01*
X147778213Y-123210292D01*
X147889707Y-123321786D01*
X147889711Y-123321789D01*
X148020814Y-123409390D01*
X148020827Y-123409397D01*
X148166498Y-123469735D01*
X148166503Y-123469737D01*
X148321153Y-123500499D01*
X148321156Y-123500500D01*
X148321158Y-123500500D01*
X148478844Y-123500500D01*
X148478845Y-123500499D01*
X148633497Y-123469737D01*
X148779179Y-123409394D01*
X148910289Y-123321789D01*
X149021789Y-123210289D01*
X149109394Y-123079179D01*
X149109398Y-123079167D01*
X149112264Y-123073808D01*
X149113697Y-123074573D01*
X149152607Y-123026286D01*
X149218900Y-123004219D01*
X149223330Y-123004140D01*
X149300300Y-123004140D01*
X149300301Y-123004139D01*
X149454953Y-122973377D01*
X149600635Y-122913034D01*
X149731745Y-122825429D01*
X149843245Y-122713929D01*
X149930850Y-122582819D01*
X149991193Y-122437137D01*
X150021956Y-122282482D01*
X150021956Y-122124798D01*
X150021956Y-122124795D01*
X150021955Y-122124793D01*
X150021357Y-122121786D01*
X149991193Y-121970143D01*
X149974674Y-121930263D01*
X149930853Y-121824467D01*
X149930846Y-121824454D01*
X149843245Y-121693351D01*
X149843242Y-121693347D01*
X149731748Y-121581853D01*
X149731744Y-121581850D01*
X149600641Y-121494249D01*
X149600628Y-121494242D01*
X149454957Y-121433904D01*
X149454945Y-121433901D01*
X149300301Y-121403140D01*
X149300298Y-121403140D01*
X149142614Y-121403140D01*
X149142611Y-121403140D01*
X148987966Y-121433901D01*
X148987954Y-121433904D01*
X148842283Y-121494242D01*
X148842270Y-121494249D01*
X148711167Y-121581850D01*
X148711163Y-121581853D01*
X148599669Y-121693347D01*
X148599666Y-121693351D01*
X148512065Y-121824454D01*
X148509192Y-121829831D01*
X148507762Y-121829066D01*
X148468836Y-121877363D01*
X148402540Y-121899421D01*
X148398125Y-121899500D01*
X148321155Y-121899500D01*
X148166510Y-121930261D01*
X148166498Y-121930264D01*
X148020827Y-121990602D01*
X148020814Y-121990609D01*
X147889711Y-122078210D01*
X147889707Y-122078213D01*
X147778213Y-122189707D01*
X147778210Y-122189711D01*
X147690609Y-122320814D01*
X147690602Y-122320827D01*
X147630264Y-122466498D01*
X147630261Y-122466510D01*
X147599500Y-122621153D01*
X145310925Y-122621153D01*
X145321789Y-122610289D01*
X145349999Y-122568068D01*
X145364629Y-122546175D01*
X145409390Y-122479185D01*
X145409390Y-122479184D01*
X145409394Y-122479179D01*
X145469737Y-122333497D01*
X145500500Y-122178842D01*
X145500500Y-122021158D01*
X145500500Y-122021155D01*
X145500499Y-122021153D01*
X145482419Y-121930261D01*
X145469737Y-121866503D01*
X145452320Y-121824454D01*
X145409397Y-121720827D01*
X145409390Y-121720814D01*
X145321789Y-121589711D01*
X145321786Y-121589707D01*
X145210292Y-121478213D01*
X145210288Y-121478210D01*
X145079185Y-121390609D01*
X145079172Y-121390602D01*
X144933501Y-121330264D01*
X144933489Y-121330261D01*
X144778845Y-121299500D01*
X144778842Y-121299500D01*
X144621158Y-121299500D01*
X144621155Y-121299500D01*
X144466510Y-121330261D01*
X144466498Y-121330264D01*
X144320827Y-121390602D01*
X144320814Y-121390609D01*
X144189711Y-121478210D01*
X144189707Y-121478213D01*
X144078213Y-121589707D01*
X144078210Y-121589711D01*
X143990609Y-121720814D01*
X143990602Y-121720827D01*
X143930264Y-121866498D01*
X143930261Y-121866510D01*
X143899500Y-122021153D01*
X140001499Y-122021153D01*
X140001499Y-118721153D01*
X147699500Y-118721153D01*
X147699500Y-118878846D01*
X147730261Y-119033489D01*
X147730264Y-119033501D01*
X147790602Y-119179172D01*
X147790609Y-119179185D01*
X147878210Y-119310288D01*
X147878213Y-119310292D01*
X147989707Y-119421786D01*
X147989711Y-119421789D01*
X148120814Y-119509390D01*
X148120827Y-119509397D01*
X148266498Y-119569735D01*
X148266503Y-119569737D01*
X148421153Y-119600499D01*
X148421156Y-119600500D01*
X148421158Y-119600500D01*
X148578844Y-119600500D01*
X148578845Y-119600499D01*
X148733497Y-119569737D01*
X148879179Y-119509394D01*
X149010289Y-119421789D01*
X149121789Y-119310289D01*
X149209394Y-119179179D01*
X149269737Y-119033497D01*
X149300500Y-118878842D01*
X149300500Y-118721158D01*
X149300500Y-118721155D01*
X149300499Y-118721153D01*
X149269738Y-118566510D01*
X149269737Y-118566503D01*
X149209794Y-118421786D01*
X149209397Y-118420827D01*
X149209390Y-118420814D01*
X149121789Y-118289711D01*
X149121786Y-118289707D01*
X149010292Y-118178213D01*
X149010288Y-118178210D01*
X148879185Y-118090609D01*
X148879172Y-118090602D01*
X148733501Y-118030264D01*
X148733489Y-118030261D01*
X148578845Y-117999500D01*
X148578842Y-117999500D01*
X148421158Y-117999500D01*
X148421155Y-117999500D01*
X148266510Y-118030261D01*
X148266498Y-118030264D01*
X148120827Y-118090602D01*
X148120814Y-118090609D01*
X147989711Y-118178210D01*
X147989707Y-118178213D01*
X147878213Y-118289707D01*
X147878210Y-118289711D01*
X147790609Y-118420814D01*
X147790602Y-118420827D01*
X147730264Y-118566498D01*
X147730261Y-118566510D01*
X147699500Y-118721153D01*
X140001499Y-118721153D01*
X140001499Y-116871153D01*
X148399500Y-116871153D01*
X148399500Y-117028846D01*
X148430261Y-117183489D01*
X148430264Y-117183501D01*
X148490602Y-117329172D01*
X148490609Y-117329185D01*
X148578210Y-117460288D01*
X148578213Y-117460292D01*
X148689707Y-117571786D01*
X148689711Y-117571789D01*
X148820814Y-117659390D01*
X148820827Y-117659397D01*
X148966498Y-117719735D01*
X148966503Y-117719737D01*
X149121153Y-117750499D01*
X149121156Y-117750500D01*
X149121158Y-117750500D01*
X149278844Y-117750500D01*
X149278845Y-117750499D01*
X149433497Y-117719737D01*
X149579179Y-117659394D01*
X149710289Y-117571789D01*
X149821789Y-117460289D01*
X149909394Y-117329179D01*
X149969737Y-117183497D01*
X149982138Y-117121153D01*
X152499500Y-117121153D01*
X152499500Y-117278846D01*
X152530261Y-117433489D01*
X152530264Y-117433501D01*
X152590602Y-117579172D01*
X152590609Y-117579185D01*
X152678210Y-117710288D01*
X152678213Y-117710292D01*
X152789707Y-117821786D01*
X152789711Y-117821789D01*
X152920814Y-117909390D01*
X152920827Y-117909397D01*
X153066498Y-117969735D01*
X153066503Y-117969737D01*
X153216131Y-117999500D01*
X153221153Y-118000499D01*
X153221156Y-118000500D01*
X153221158Y-118000500D01*
X153378844Y-118000500D01*
X153378845Y-118000499D01*
X153533497Y-117969737D01*
X153679179Y-117909394D01*
X153810289Y-117821789D01*
X153910925Y-117721153D01*
X155399500Y-117721153D01*
X155399500Y-117878846D01*
X155430261Y-118033489D01*
X155430264Y-118033501D01*
X155490602Y-118179172D01*
X155490609Y-118179185D01*
X155578210Y-118310288D01*
X155578213Y-118310292D01*
X155689707Y-118421786D01*
X155689711Y-118421789D01*
X155820814Y-118509390D01*
X155820827Y-118509397D01*
X155958683Y-118566498D01*
X155966503Y-118569737D01*
X156121153Y-118600499D01*
X156121156Y-118600500D01*
X156121158Y-118600500D01*
X156278844Y-118600500D01*
X156278845Y-118600499D01*
X156433497Y-118569737D01*
X156579179Y-118509394D01*
X156710289Y-118421789D01*
X156821789Y-118310289D01*
X156909394Y-118179179D01*
X156969737Y-118033497D01*
X157000500Y-117878842D01*
X157000500Y-117721158D01*
X157000500Y-117721155D01*
X157000499Y-117721153D01*
X156985585Y-117646175D01*
X156969737Y-117566503D01*
X156969735Y-117566498D01*
X156909397Y-117420827D01*
X156909390Y-117420814D01*
X156821789Y-117289711D01*
X156821786Y-117289707D01*
X156710292Y-117178213D01*
X156710288Y-117178210D01*
X156579185Y-117090609D01*
X156579172Y-117090602D01*
X156433501Y-117030264D01*
X156433489Y-117030261D01*
X156278845Y-116999500D01*
X156278842Y-116999500D01*
X156121158Y-116999500D01*
X156121155Y-116999500D01*
X155966510Y-117030261D01*
X155966498Y-117030264D01*
X155820827Y-117090602D01*
X155820814Y-117090609D01*
X155689711Y-117178210D01*
X155689707Y-117178213D01*
X155578213Y-117289707D01*
X155578210Y-117289711D01*
X155490609Y-117420814D01*
X155490602Y-117420827D01*
X155430264Y-117566498D01*
X155430261Y-117566510D01*
X155399500Y-117721153D01*
X153910925Y-117721153D01*
X153921789Y-117710289D01*
X154009394Y-117579179D01*
X154069737Y-117433497D01*
X154100500Y-117278842D01*
X154100500Y-117121158D01*
X154100500Y-117121155D01*
X154100499Y-117121153D01*
X154082137Y-117028842D01*
X154069737Y-116966503D01*
X154010918Y-116824500D01*
X154009397Y-116820827D01*
X154009390Y-116820814D01*
X153921789Y-116689711D01*
X153921786Y-116689707D01*
X153810292Y-116578213D01*
X153810288Y-116578210D01*
X153679185Y-116490609D01*
X153679172Y-116490602D01*
X153533501Y-116430264D01*
X153533489Y-116430261D01*
X153378845Y-116399500D01*
X153378842Y-116399500D01*
X153221158Y-116399500D01*
X153221155Y-116399500D01*
X153066510Y-116430261D01*
X153066498Y-116430264D01*
X152920827Y-116490602D01*
X152920814Y-116490609D01*
X152789711Y-116578210D01*
X152789707Y-116578213D01*
X152678213Y-116689707D01*
X152678210Y-116689711D01*
X152590609Y-116820814D01*
X152590602Y-116820827D01*
X152530264Y-116966498D01*
X152530261Y-116966510D01*
X152499500Y-117121153D01*
X149982138Y-117121153D01*
X149988215Y-117090602D01*
X150000500Y-117028844D01*
X150000500Y-116871155D01*
X150000499Y-116871153D01*
X149969738Y-116716510D01*
X149969737Y-116716503D01*
X149967750Y-116711706D01*
X149909397Y-116570827D01*
X149909390Y-116570814D01*
X149821789Y-116439711D01*
X149821786Y-116439707D01*
X149710292Y-116328213D01*
X149710288Y-116328210D01*
X149579185Y-116240609D01*
X149579172Y-116240602D01*
X149433501Y-116180264D01*
X149433489Y-116180261D01*
X149278845Y-116149500D01*
X149278842Y-116149500D01*
X149121158Y-116149500D01*
X149121155Y-116149500D01*
X148966510Y-116180261D01*
X148966498Y-116180264D01*
X148820827Y-116240602D01*
X148820814Y-116240609D01*
X148689711Y-116328210D01*
X148689707Y-116328213D01*
X148578213Y-116439707D01*
X148578210Y-116439711D01*
X148490609Y-116570814D01*
X148490602Y-116570827D01*
X148430264Y-116716498D01*
X148430261Y-116716510D01*
X148399500Y-116871153D01*
X140001499Y-116871153D01*
X140001499Y-116824500D01*
X140021184Y-116757461D01*
X140073988Y-116711706D01*
X140125499Y-116700500D01*
X144698543Y-116700500D01*
X144828582Y-116674632D01*
X144891835Y-116662051D01*
X145073914Y-116586632D01*
X145237782Y-116477139D01*
X145377139Y-116337782D01*
X145486632Y-116173914D01*
X145562051Y-115991835D01*
X145600500Y-115798541D01*
X145600500Y-115601459D01*
X145600500Y-115601456D01*
X145562052Y-115408170D01*
X145562051Y-115408169D01*
X145562051Y-115408165D01*
X145526272Y-115321786D01*
X145486635Y-115226092D01*
X145486628Y-115226079D01*
X145377139Y-115062218D01*
X145377136Y-115062214D01*
X145237785Y-114922863D01*
X145237781Y-114922860D01*
X145073920Y-114813371D01*
X145073907Y-114813364D01*
X144891839Y-114737950D01*
X144891827Y-114737947D01*
X144885473Y-114736683D01*
X144885472Y-114736683D01*
X144698543Y-114699500D01*
X144698541Y-114699500D01*
X141424500Y-114699500D01*
X141357461Y-114679815D01*
X141311706Y-114627011D01*
X141310432Y-114621153D01*
X147599500Y-114621153D01*
X147599500Y-114778846D01*
X147630261Y-114933489D01*
X147630264Y-114933501D01*
X147690602Y-115079172D01*
X147690609Y-115079185D01*
X147778210Y-115210288D01*
X147778213Y-115210292D01*
X147889707Y-115321786D01*
X147889711Y-115321789D01*
X148020814Y-115409390D01*
X148020827Y-115409397D01*
X148142363Y-115459738D01*
X148166503Y-115469737D01*
X148321153Y-115500499D01*
X148321156Y-115500500D01*
X148321158Y-115500500D01*
X148478844Y-115500500D01*
X148478845Y-115500499D01*
X148633497Y-115469737D01*
X148779179Y-115409394D01*
X148910289Y-115321789D01*
X148912312Y-115319766D01*
X148913634Y-115319043D01*
X148914999Y-115317924D01*
X148915211Y-115318182D01*
X148973632Y-115286276D01*
X149043324Y-115291255D01*
X149084939Y-115317999D01*
X149085001Y-115317924D01*
X149085648Y-115318454D01*
X149087688Y-115319766D01*
X149089711Y-115321789D01*
X149220814Y-115409390D01*
X149220827Y-115409397D01*
X149342363Y-115459738D01*
X149366503Y-115469737D01*
X149521153Y-115500499D01*
X149521156Y-115500500D01*
X149521158Y-115500500D01*
X149678844Y-115500500D01*
X149678845Y-115500499D01*
X149833497Y-115469737D01*
X149979179Y-115409394D01*
X150110289Y-115321789D01*
X150125957Y-115306120D01*
X150187275Y-115272635D01*
X150256967Y-115277616D01*
X150301320Y-115306119D01*
X150306987Y-115311786D01*
X150306991Y-115311789D01*
X150438094Y-115399390D01*
X150438107Y-115399397D01*
X150583778Y-115459735D01*
X150583783Y-115459737D01*
X150738433Y-115490499D01*
X150738436Y-115490500D01*
X150738438Y-115490500D01*
X150896124Y-115490500D01*
X150896125Y-115490499D01*
X151050777Y-115459737D01*
X151163446Y-115413067D01*
X151196452Y-115399397D01*
X151196452Y-115399396D01*
X151196459Y-115399394D01*
X151327569Y-115311789D01*
X151439069Y-115200289D01*
X151526674Y-115069179D01*
X151562719Y-114982156D01*
X151606558Y-114927757D01*
X151672852Y-114905691D01*
X151740551Y-114922970D01*
X151788162Y-114974106D01*
X151789733Y-114977547D01*
X151790609Y-114979185D01*
X151878210Y-115110288D01*
X151878213Y-115110292D01*
X151989707Y-115221786D01*
X151989711Y-115221789D01*
X152120814Y-115309390D01*
X152120827Y-115309397D01*
X152266498Y-115369735D01*
X152266503Y-115369737D01*
X152415578Y-115399390D01*
X152421153Y-115400499D01*
X152421156Y-115400500D01*
X152421158Y-115400500D01*
X152578844Y-115400500D01*
X152578845Y-115400499D01*
X152733497Y-115369737D01*
X152879179Y-115309394D01*
X153010289Y-115221789D01*
X153121789Y-115110289D01*
X153209394Y-114979179D01*
X153269737Y-114833497D01*
X153300500Y-114678842D01*
X153300500Y-114521158D01*
X153300500Y-114521155D01*
X153300499Y-114521153D01*
X153287639Y-114456503D01*
X153269737Y-114366503D01*
X153269735Y-114366498D01*
X153209397Y-114220827D01*
X153209390Y-114220814D01*
X153121789Y-114089711D01*
X153121786Y-114089707D01*
X153010292Y-113978213D01*
X153010288Y-113978210D01*
X152879185Y-113890609D01*
X152879172Y-113890602D01*
X152733501Y-113830264D01*
X152733489Y-113830261D01*
X152578845Y-113799500D01*
X152578842Y-113799500D01*
X152421158Y-113799500D01*
X152421155Y-113799500D01*
X152266510Y-113830261D01*
X152266498Y-113830264D01*
X152120827Y-113890602D01*
X152120814Y-113890609D01*
X151989711Y-113978210D01*
X151989707Y-113978213D01*
X151878213Y-114089707D01*
X151878210Y-114089711D01*
X151790609Y-114220814D01*
X151790604Y-114220824D01*
X151754561Y-114307840D01*
X151710720Y-114362243D01*
X151644425Y-114384308D01*
X151576726Y-114367029D01*
X151529116Y-114315891D01*
X151527545Y-114312450D01*
X151526670Y-114310814D01*
X151439069Y-114179711D01*
X151439066Y-114179707D01*
X151327572Y-114068213D01*
X151327568Y-114068210D01*
X151196465Y-113980609D01*
X151196452Y-113980602D01*
X151050781Y-113920264D01*
X151050769Y-113920261D01*
X150896125Y-113889500D01*
X150896122Y-113889500D01*
X150738438Y-113889500D01*
X150738435Y-113889500D01*
X150583790Y-113920261D01*
X150583778Y-113920264D01*
X150438107Y-113980602D01*
X150438094Y-113980609D01*
X150306991Y-114068210D01*
X150306987Y-114068213D01*
X150291321Y-114083880D01*
X150229998Y-114117365D01*
X150160306Y-114112381D01*
X150115959Y-114083880D01*
X150110292Y-114078213D01*
X150110288Y-114078210D01*
X149979185Y-113990609D01*
X149979172Y-113990602D01*
X149833501Y-113930264D01*
X149833489Y-113930261D01*
X149678845Y-113899500D01*
X149678842Y-113899500D01*
X149521158Y-113899500D01*
X149521155Y-113899500D01*
X149366510Y-113930261D01*
X149366498Y-113930264D01*
X149220827Y-113990602D01*
X149220814Y-113990609D01*
X149089711Y-114078210D01*
X149089707Y-114078213D01*
X149087681Y-114080240D01*
X149086357Y-114080962D01*
X149085001Y-114082076D01*
X149084789Y-114081818D01*
X149026358Y-114113725D01*
X148956666Y-114108741D01*
X148915060Y-114082001D01*
X148914999Y-114082076D01*
X148914360Y-114081552D01*
X148912319Y-114080240D01*
X148910292Y-114078213D01*
X148910288Y-114078210D01*
X148779185Y-113990609D01*
X148779172Y-113990602D01*
X148633501Y-113930264D01*
X148633489Y-113930261D01*
X148478845Y-113899500D01*
X148478842Y-113899500D01*
X148321158Y-113899500D01*
X148321155Y-113899500D01*
X148166510Y-113930261D01*
X148166498Y-113930264D01*
X148020827Y-113990602D01*
X148020814Y-113990609D01*
X147889711Y-114078210D01*
X147889707Y-114078213D01*
X147778213Y-114189707D01*
X147778210Y-114189711D01*
X147690609Y-114320814D01*
X147690602Y-114320827D01*
X147630264Y-114466498D01*
X147630261Y-114466510D01*
X147599500Y-114621153D01*
X141310432Y-114621153D01*
X141300500Y-114575500D01*
X141300500Y-114421155D01*
X141300499Y-114421153D01*
X141280543Y-114320827D01*
X141269737Y-114266503D01*
X141237929Y-114189711D01*
X141209397Y-114120827D01*
X141209390Y-114120814D01*
X141121789Y-113989711D01*
X141121786Y-113989707D01*
X141010292Y-113878213D01*
X141010288Y-113878210D01*
X140879185Y-113790609D01*
X140879172Y-113790602D01*
X140733501Y-113730264D01*
X140733489Y-113730261D01*
X140578845Y-113699500D01*
X140578842Y-113699500D01*
X140421158Y-113699500D01*
X140421155Y-113699500D01*
X140266510Y-113730261D01*
X140266498Y-113730264D01*
X140172951Y-113769013D01*
X140103482Y-113776482D01*
X140041003Y-113745207D01*
X140005351Y-113685118D01*
X140001499Y-113654452D01*
X140001499Y-111404934D01*
X140021184Y-111337895D01*
X140073988Y-111292140D01*
X140143146Y-111282196D01*
X140206702Y-111311221D01*
X140228601Y-111336043D01*
X140278210Y-111410288D01*
X140278213Y-111410292D01*
X140389707Y-111521786D01*
X140389711Y-111521789D01*
X140520814Y-111609390D01*
X140520827Y-111609397D01*
X140666498Y-111669735D01*
X140666503Y-111669737D01*
X140774681Y-111691255D01*
X140821153Y-111700499D01*
X140821156Y-111700500D01*
X140821158Y-111700500D01*
X140978844Y-111700500D01*
X140978845Y-111700499D01*
X141133497Y-111669737D01*
X141279179Y-111609394D01*
X141410289Y-111521789D01*
X141521789Y-111410289D01*
X141609394Y-111279179D01*
X141669737Y-111133497D01*
X141672192Y-111121153D01*
X149949500Y-111121153D01*
X149949500Y-111278846D01*
X149980261Y-111433489D01*
X149980264Y-111433501D01*
X150040602Y-111579172D01*
X150040609Y-111579185D01*
X150128210Y-111710288D01*
X150128213Y-111710292D01*
X150239707Y-111821786D01*
X150239711Y-111821789D01*
X150370814Y-111909390D01*
X150370827Y-111909397D01*
X150516498Y-111969735D01*
X150516503Y-111969737D01*
X150671153Y-112000499D01*
X150671156Y-112000500D01*
X150671158Y-112000500D01*
X150828844Y-112000500D01*
X150828845Y-112000499D01*
X150983497Y-111969737D01*
X151129179Y-111909394D01*
X151260289Y-111821789D01*
X151371789Y-111710289D01*
X151459394Y-111579179D01*
X151519737Y-111433497D01*
X151550500Y-111278842D01*
X151550500Y-111121158D01*
X151550500Y-111121155D01*
X151534209Y-111039258D01*
X151534209Y-111039257D01*
X151530608Y-111021153D01*
X151999500Y-111021153D01*
X151999500Y-111178846D01*
X152030261Y-111333489D01*
X152030264Y-111333501D01*
X152090602Y-111479172D01*
X152090609Y-111479185D01*
X152178210Y-111610288D01*
X152178213Y-111610292D01*
X152289707Y-111721786D01*
X152289711Y-111721789D01*
X152420814Y-111809390D01*
X152420827Y-111809397D01*
X152566498Y-111869735D01*
X152566503Y-111869737D01*
X152721153Y-111900499D01*
X152721156Y-111900500D01*
X152721158Y-111900500D01*
X152878844Y-111900500D01*
X152878845Y-111900499D01*
X153033497Y-111869737D01*
X153179179Y-111809394D01*
X153310289Y-111721789D01*
X153312313Y-111719764D01*
X153313633Y-111719043D01*
X153314993Y-111717928D01*
X153315204Y-111718185D01*
X153373631Y-111686276D01*
X153443323Y-111691255D01*
X153487680Y-111719759D01*
X153589707Y-111821786D01*
X153589711Y-111821789D01*
X153720814Y-111909390D01*
X153720827Y-111909397D01*
X153866498Y-111969735D01*
X153866503Y-111969737D01*
X154021153Y-112000499D01*
X154021156Y-112000500D01*
X154021158Y-112000500D01*
X154178844Y-112000500D01*
X154178845Y-112000499D01*
X154333497Y-111969737D01*
X154479179Y-111909394D01*
X154610289Y-111821789D01*
X154721789Y-111710289D01*
X154809394Y-111579179D01*
X154869737Y-111433497D01*
X154900500Y-111278842D01*
X154900500Y-111121158D01*
X154900500Y-111121155D01*
X154900499Y-111121153D01*
X154884209Y-111039257D01*
X154869737Y-110966503D01*
X154809534Y-110821158D01*
X154809397Y-110820827D01*
X154809390Y-110820814D01*
X154721789Y-110689711D01*
X154721786Y-110689707D01*
X154610292Y-110578213D01*
X154610288Y-110578210D01*
X154479185Y-110490609D01*
X154479172Y-110490602D01*
X154333501Y-110430264D01*
X154333489Y-110430261D01*
X154178845Y-110399500D01*
X154178842Y-110399500D01*
X154021158Y-110399500D01*
X154021155Y-110399500D01*
X153866510Y-110430261D01*
X153866498Y-110430264D01*
X153720827Y-110490602D01*
X153720814Y-110490609D01*
X153589714Y-110578208D01*
X153589706Y-110578215D01*
X153587674Y-110580247D01*
X153586349Y-110580970D01*
X153585007Y-110582072D01*
X153584797Y-110581817D01*
X153526349Y-110613727D01*
X153456657Y-110608737D01*
X153412319Y-110580240D01*
X153310292Y-110478213D01*
X153310288Y-110478210D01*
X153179185Y-110390609D01*
X153179172Y-110390602D01*
X153033501Y-110330264D01*
X153033489Y-110330261D01*
X152878845Y-110299500D01*
X152878842Y-110299500D01*
X152721158Y-110299500D01*
X152721155Y-110299500D01*
X152566510Y-110330261D01*
X152566498Y-110330264D01*
X152420827Y-110390602D01*
X152420814Y-110390609D01*
X152289711Y-110478210D01*
X152289707Y-110478213D01*
X152178213Y-110589707D01*
X152178210Y-110589711D01*
X152090609Y-110720814D01*
X152090602Y-110720827D01*
X152030264Y-110866498D01*
X152030261Y-110866510D01*
X151999500Y-111021153D01*
X151530608Y-111021153D01*
X151519738Y-110966510D01*
X151519737Y-110966503D01*
X151459534Y-110821158D01*
X151459397Y-110820827D01*
X151459390Y-110820814D01*
X151371789Y-110689711D01*
X151371786Y-110689707D01*
X151260292Y-110578213D01*
X151260288Y-110578210D01*
X151129185Y-110490609D01*
X151129172Y-110490602D01*
X150983501Y-110430264D01*
X150983489Y-110430261D01*
X150828845Y-110399500D01*
X150828842Y-110399500D01*
X150671158Y-110399500D01*
X150671155Y-110399500D01*
X150516510Y-110430261D01*
X150516498Y-110430264D01*
X150370827Y-110490602D01*
X150370814Y-110490609D01*
X150239711Y-110578210D01*
X150239707Y-110578213D01*
X150128213Y-110689707D01*
X150128210Y-110689711D01*
X150040609Y-110820814D01*
X150040602Y-110820827D01*
X149980264Y-110966498D01*
X149980261Y-110966510D01*
X149949500Y-111121153D01*
X141672192Y-111121153D01*
X141678216Y-111090874D01*
X141678216Y-111090873D01*
X141700499Y-110978846D01*
X141700500Y-110978844D01*
X141700500Y-110821155D01*
X141700499Y-110821153D01*
X141680543Y-110720827D01*
X141669737Y-110666503D01*
X141637929Y-110589711D01*
X141609397Y-110520827D01*
X141609390Y-110520814D01*
X141521789Y-110389711D01*
X141521786Y-110389707D01*
X141410292Y-110278213D01*
X141410288Y-110278210D01*
X141279185Y-110190609D01*
X141279172Y-110190602D01*
X141141126Y-110133423D01*
X141086722Y-110089583D01*
X141064657Y-110023289D01*
X141081936Y-109955589D01*
X141100894Y-109931183D01*
X141121789Y-109910289D01*
X141209394Y-109779179D01*
X141269737Y-109633497D01*
X141300500Y-109478842D01*
X141300500Y-109321158D01*
X141300500Y-109321155D01*
X141300499Y-109321153D01*
X141269738Y-109166510D01*
X141269737Y-109166503D01*
X141266113Y-109157754D01*
X141209397Y-109020827D01*
X141209390Y-109020814D01*
X141121789Y-108889711D01*
X141121786Y-108889707D01*
X141010292Y-108778213D01*
X141010288Y-108778210D01*
X140879185Y-108690609D01*
X140879172Y-108690602D01*
X140733501Y-108630264D01*
X140733489Y-108630261D01*
X140608340Y-108605367D01*
X140546429Y-108572982D01*
X140511855Y-108512266D01*
X140515594Y-108442497D01*
X140556461Y-108385825D01*
X140608340Y-108362133D01*
X140669025Y-108350061D01*
X140733497Y-108337237D01*
X140879179Y-108276894D01*
X141010289Y-108189289D01*
X141121789Y-108077789D01*
X141159632Y-108021153D01*
X153299500Y-108021153D01*
X153299500Y-108178846D01*
X153330261Y-108333489D01*
X153330264Y-108333501D01*
X153390604Y-108479175D01*
X153392012Y-108481809D01*
X153392332Y-108483346D01*
X153392937Y-108484807D01*
X153392660Y-108484921D01*
X153406253Y-108550212D01*
X153397214Y-108587713D01*
X153354529Y-108690763D01*
X153354526Y-108690775D01*
X153323765Y-108845418D01*
X153323765Y-109003111D01*
X153354526Y-109157754D01*
X153354529Y-109157766D01*
X153414867Y-109303437D01*
X153414874Y-109303450D01*
X153502475Y-109434553D01*
X153502478Y-109434557D01*
X153613972Y-109546051D01*
X153613976Y-109546054D01*
X153745079Y-109633655D01*
X153745092Y-109633662D01*
X153890763Y-109694000D01*
X153890768Y-109694002D01*
X154045418Y-109724764D01*
X154045421Y-109724765D01*
X154045423Y-109724765D01*
X154203109Y-109724765D01*
X154203110Y-109724764D01*
X154357762Y-109694002D01*
X154503444Y-109633659D01*
X154634554Y-109546054D01*
X154746054Y-109434554D01*
X154833659Y-109303444D01*
X154894002Y-109157762D01*
X154924765Y-109003107D01*
X154924765Y-108845423D01*
X154924765Y-108845420D01*
X154924764Y-108845418D01*
X154911396Y-108778213D01*
X154894002Y-108690768D01*
X154833659Y-108545086D01*
X154833658Y-108545084D01*
X154832250Y-108542448D01*
X154831929Y-108540910D01*
X154831328Y-108539457D01*
X154831603Y-108539342D01*
X154818012Y-108474044D01*
X154827049Y-108436553D01*
X154869737Y-108333497D01*
X154900500Y-108178842D01*
X154900500Y-108021158D01*
X154900500Y-108021155D01*
X154900499Y-108021153D01*
X154869738Y-107866510D01*
X154869737Y-107866503D01*
X154869735Y-107866498D01*
X154809397Y-107720827D01*
X154809390Y-107720814D01*
X154721789Y-107589711D01*
X154721786Y-107589707D01*
X154610292Y-107478213D01*
X154610288Y-107478210D01*
X154479185Y-107390609D01*
X154479172Y-107390602D01*
X154333501Y-107330264D01*
X154333489Y-107330261D01*
X154178845Y-107299500D01*
X154178842Y-107299500D01*
X154021158Y-107299500D01*
X154021155Y-107299500D01*
X153866510Y-107330261D01*
X153866498Y-107330264D01*
X153720827Y-107390602D01*
X153720814Y-107390609D01*
X153589711Y-107478210D01*
X153589707Y-107478213D01*
X153478213Y-107589707D01*
X153478210Y-107589711D01*
X153390609Y-107720814D01*
X153390602Y-107720827D01*
X153330264Y-107866498D01*
X153330261Y-107866510D01*
X153299500Y-108021153D01*
X141159632Y-108021153D01*
X141209394Y-107946679D01*
X141269737Y-107800997D01*
X141300500Y-107646342D01*
X141300500Y-107488658D01*
X141300500Y-107488655D01*
X141300499Y-107488653D01*
X141298422Y-107478210D01*
X141269737Y-107334003D01*
X141255638Y-107299965D01*
X141209397Y-107188327D01*
X141209390Y-107188314D01*
X141121789Y-107057211D01*
X141121786Y-107057207D01*
X141010292Y-106945713D01*
X141010288Y-106945710D01*
X140879185Y-106858109D01*
X140879172Y-106858102D01*
X140733501Y-106797764D01*
X140733489Y-106797761D01*
X140578845Y-106767000D01*
X140578842Y-106767000D01*
X140421158Y-106767000D01*
X140421155Y-106767000D01*
X140266510Y-106797761D01*
X140266498Y-106797764D01*
X140172951Y-106836513D01*
X140140325Y-106840020D01*
X140107852Y-106844690D01*
X140105764Y-106843736D01*
X140103482Y-106843982D01*
X140074138Y-106829293D01*
X140044296Y-106815665D01*
X140043055Y-106813734D01*
X140041003Y-106812707D01*
X140024262Y-106784491D01*
X140006522Y-106756887D01*
X140006086Y-106753857D01*
X140005351Y-106752618D01*
X140001499Y-106721952D01*
X140001499Y-106578808D01*
X147141845Y-106578808D01*
X147141845Y-106736501D01*
X147172606Y-106891144D01*
X147172609Y-106891156D01*
X147232947Y-107036827D01*
X147232954Y-107036840D01*
X147320555Y-107167943D01*
X147320558Y-107167947D01*
X147432052Y-107279441D01*
X147432056Y-107279444D01*
X147563159Y-107367045D01*
X147563172Y-107367052D01*
X147621170Y-107391075D01*
X147708848Y-107427392D01*
X147863498Y-107458154D01*
X147863501Y-107458155D01*
X147863503Y-107458155D01*
X148021189Y-107458155D01*
X148021190Y-107458154D01*
X148175842Y-107427392D01*
X148321524Y-107367049D01*
X148452634Y-107279444D01*
X148452638Y-107279439D01*
X148456484Y-107276870D01*
X148523162Y-107255992D01*
X148590542Y-107274476D01*
X148594267Y-107276870D01*
X148628831Y-107299965D01*
X148628844Y-107299972D01*
X148774515Y-107360310D01*
X148774520Y-107360312D01*
X148926797Y-107390602D01*
X148929170Y-107391074D01*
X148929173Y-107391075D01*
X148929175Y-107391075D01*
X149086861Y-107391075D01*
X149086862Y-107391074D01*
X149241514Y-107360312D01*
X149387196Y-107299969D01*
X149518306Y-107212364D01*
X149629806Y-107100864D01*
X149717411Y-106969754D01*
X149777754Y-106824072D01*
X149808517Y-106669417D01*
X149808517Y-106511733D01*
X149808517Y-106511729D01*
X149803706Y-106487548D01*
X149809930Y-106417956D01*
X149837640Y-106375671D01*
X149874205Y-106339108D01*
X149961810Y-106207998D01*
X150022153Y-106062316D01*
X150052916Y-105907661D01*
X150052916Y-105749977D01*
X150052916Y-105749974D01*
X150052915Y-105749972D01*
X150022154Y-105595329D01*
X150022153Y-105595322D01*
X150022151Y-105595317D01*
X149961813Y-105449646D01*
X149961806Y-105449633D01*
X149874205Y-105318530D01*
X149874202Y-105318526D01*
X149762708Y-105207032D01*
X149762704Y-105207029D01*
X149631601Y-105119428D01*
X149631588Y-105119421D01*
X149485917Y-105059083D01*
X149485905Y-105059080D01*
X149331261Y-105028319D01*
X149331258Y-105028319D01*
X149173574Y-105028319D01*
X149173571Y-105028319D01*
X149018926Y-105059080D01*
X149018914Y-105059083D01*
X148873243Y-105119421D01*
X148873230Y-105119428D01*
X148742127Y-105207029D01*
X148742123Y-105207032D01*
X148630629Y-105318526D01*
X148630626Y-105318530D01*
X148543025Y-105449633D01*
X148543018Y-105449646D01*
X148482680Y-105595317D01*
X148482677Y-105595329D01*
X148451916Y-105749972D01*
X148451916Y-105816692D01*
X148432231Y-105883731D01*
X148379427Y-105929486D01*
X148310269Y-105939430D01*
X148280464Y-105931253D01*
X148175846Y-105887919D01*
X148175834Y-105887916D01*
X148021190Y-105857155D01*
X148021187Y-105857155D01*
X147863503Y-105857155D01*
X147863500Y-105857155D01*
X147708855Y-105887916D01*
X147708843Y-105887919D01*
X147563172Y-105948257D01*
X147563159Y-105948264D01*
X147432056Y-106035865D01*
X147432052Y-106035868D01*
X147320558Y-106147362D01*
X147320555Y-106147366D01*
X147232954Y-106278469D01*
X147232947Y-106278482D01*
X147172609Y-106424153D01*
X147172606Y-106424165D01*
X147141845Y-106578808D01*
X140001499Y-106578808D01*
X140001499Y-100517847D01*
X140021184Y-100450808D01*
X140073988Y-100405053D01*
X140101308Y-100396230D01*
X140117290Y-100393050D01*
X140234496Y-100369737D01*
X140380178Y-100309394D01*
X140511288Y-100221789D01*
X140622788Y-100110289D01*
X140710393Y-99979179D01*
X140770736Y-99833497D01*
X140801499Y-99678842D01*
X140801499Y-99521158D01*
X140801499Y-99521155D01*
X140801498Y-99521153D01*
X140770737Y-99366510D01*
X140770736Y-99366503D01*
X140751814Y-99320821D01*
X140710396Y-99220827D01*
X140710389Y-99220814D01*
X140622788Y-99089711D01*
X140622785Y-99089707D01*
X140511291Y-98978213D01*
X140511287Y-98978210D01*
X140380184Y-98890609D01*
X140380171Y-98890602D01*
X140234500Y-98830264D01*
X140234490Y-98830261D01*
X140101307Y-98803769D01*
X140039396Y-98771384D01*
X140004822Y-98710668D01*
X140001499Y-98682152D01*
X140001499Y-95632550D01*
X140021184Y-95565511D01*
X140037818Y-95544869D01*
X141146368Y-94436319D01*
X142284807Y-93297879D01*
X142346128Y-93264396D01*
X142415820Y-93269380D01*
X142460167Y-93297881D01*
X142539707Y-93377421D01*
X142539711Y-93377424D01*
X142670814Y-93465025D01*
X142670827Y-93465032D01*
X142816498Y-93525370D01*
X142816503Y-93525372D01*
X142971153Y-93556134D01*
X142971156Y-93556135D01*
X142971158Y-93556135D01*
X143128844Y-93556135D01*
X143128845Y-93556134D01*
X143283497Y-93525372D01*
X143429179Y-93465029D01*
X143560289Y-93377424D01*
X143671789Y-93265924D01*
X143759394Y-93134814D01*
X143819737Y-92989132D01*
X143850500Y-92834477D01*
X143850500Y-92676793D01*
X143850500Y-92676790D01*
X143850499Y-92676788D01*
X143842239Y-92635263D01*
X143819737Y-92522138D01*
X143819735Y-92522133D01*
X143759397Y-92376462D01*
X143759390Y-92376449D01*
X143671789Y-92245346D01*
X143671786Y-92245342D01*
X143592246Y-92165802D01*
X143558761Y-92104479D01*
X143563745Y-92034787D01*
X143592244Y-91990442D01*
X146648881Y-88933804D01*
X146710202Y-88900321D01*
X146779894Y-88905305D01*
X146835827Y-88947177D01*
X146839652Y-88952581D01*
X146864444Y-88989686D01*
X146878212Y-89010291D01*
X146989707Y-89121786D01*
X146989711Y-89121789D01*
X147120814Y-89209390D01*
X147120827Y-89209397D01*
X147266498Y-89269735D01*
X147266503Y-89269737D01*
X147421153Y-89300499D01*
X147421156Y-89300500D01*
X147421158Y-89300500D01*
X147578844Y-89300500D01*
X147578845Y-89300499D01*
X147733497Y-89269737D01*
X147879179Y-89209394D01*
X148010289Y-89121789D01*
X148121789Y-89010289D01*
X148209394Y-88879179D01*
X148269737Y-88733497D01*
X148300500Y-88578842D01*
X148300500Y-88421158D01*
X148300500Y-88421155D01*
X148300499Y-88421153D01*
X148285254Y-88344514D01*
X148269737Y-88266503D01*
X148237929Y-88189711D01*
X148209397Y-88120827D01*
X148209390Y-88120814D01*
X148121789Y-87989711D01*
X148121786Y-87989707D01*
X148010291Y-87878212D01*
X147989686Y-87864444D01*
X147952595Y-87839661D01*
X147907791Y-87786051D01*
X147899084Y-87716726D01*
X147929238Y-87653698D01*
X147933784Y-87648901D01*
X149195869Y-86386819D01*
X149257192Y-86353334D01*
X149283550Y-86350500D01*
X153335500Y-86350500D01*
X153402539Y-86370185D01*
X153448294Y-86422989D01*
X153459500Y-86474500D01*
X153459500Y-88000001D01*
X153459501Y-88000018D01*
X153470000Y-88102796D01*
X153470001Y-88102799D01*
X153519820Y-88253140D01*
X153525186Y-88269334D01*
X153617288Y-88418656D01*
X153741344Y-88542712D01*
X153890666Y-88634814D01*
X154057203Y-88689999D01*
X154159991Y-88700500D01*
X155760008Y-88700499D01*
X155862797Y-88689999D01*
X156029334Y-88634814D01*
X156178656Y-88542712D01*
X156302712Y-88418656D01*
X156394814Y-88269334D01*
X156449999Y-88102797D01*
X156460500Y-88000009D01*
X156460499Y-87937305D01*
X156480183Y-87870269D01*
X156496818Y-87849626D01*
X156860689Y-87485754D01*
X156879668Y-87531574D01*
X156956274Y-87646224D01*
X157053776Y-87743726D01*
X157168426Y-87820332D01*
X157214243Y-87839309D01*
X156630893Y-88422658D01*
X156713828Y-88482914D01*
X156924197Y-88590102D01*
X157148752Y-88663065D01*
X157148751Y-88663065D01*
X157381948Y-88700000D01*
X157618052Y-88700000D01*
X157851247Y-88663065D01*
X158075802Y-88590102D01*
X158286163Y-88482918D01*
X158286169Y-88482914D01*
X158369104Y-88422658D01*
X158369105Y-88422658D01*
X157785756Y-87839310D01*
X157831574Y-87820332D01*
X157946224Y-87743726D01*
X158043726Y-87646224D01*
X158120332Y-87531574D01*
X158139309Y-87485756D01*
X158722657Y-88069104D01*
X158742404Y-88067550D01*
X158810781Y-88081914D01*
X158852451Y-88118282D01*
X158895483Y-88177510D01*
X159062490Y-88344517D01*
X159253567Y-88483343D01*
X159329016Y-88521786D01*
X159464003Y-88590566D01*
X159464005Y-88590566D01*
X159464008Y-88590568D01*
X159521958Y-88609397D01*
X159688631Y-88663553D01*
X159921903Y-88700500D01*
X159921908Y-88700500D01*
X160158097Y-88700500D01*
X160391368Y-88663553D01*
X160392870Y-88663065D01*
X160615992Y-88590568D01*
X160826433Y-88483343D01*
X161017510Y-88344517D01*
X161184517Y-88177510D01*
X161323343Y-87986433D01*
X161430568Y-87775992D01*
X161503553Y-87551368D01*
X161529157Y-87389711D01*
X161540500Y-87318097D01*
X161540500Y-87081902D01*
X161503553Y-86848631D01*
X161430566Y-86624003D01*
X161354390Y-86474500D01*
X161323343Y-86413567D01*
X161184517Y-86222490D01*
X161076819Y-86114792D01*
X161062115Y-86087864D01*
X161045523Y-86062046D01*
X161044631Y-86055845D01*
X161043334Y-86053469D01*
X161040500Y-86027111D01*
X161040500Y-85969242D01*
X161060185Y-85902203D01*
X161089014Y-85870866D01*
X161117911Y-85848692D01*
X161187042Y-85795646D01*
X161395646Y-85587042D01*
X161575238Y-85352994D01*
X161722743Y-85097507D01*
X161835639Y-84824952D01*
X161911993Y-84539993D01*
X161950500Y-84247506D01*
X161950500Y-83952494D01*
X161911993Y-83660007D01*
X161835639Y-83375048D01*
X161722743Y-83102493D01*
X161575238Y-82847006D01*
X161395646Y-82612958D01*
X161395641Y-82612952D01*
X161187047Y-82404358D01*
X161187040Y-82404352D01*
X160952993Y-82224761D01*
X160697510Y-82077258D01*
X160697500Y-82077254D01*
X160424961Y-81964364D01*
X160424954Y-81964362D01*
X160424952Y-81964361D01*
X160139993Y-81888007D01*
X160091113Y-81881571D01*
X159847513Y-81849500D01*
X159847506Y-81849500D01*
X152970297Y-81849500D01*
X152903258Y-81829815D01*
X152857503Y-81777011D01*
X152855736Y-81772953D01*
X152824379Y-81697252D01*
X152824377Y-81697249D01*
X152728154Y-81571848D01*
X152728148Y-81571841D01*
X152228158Y-81071851D01*
X152228151Y-81071845D01*
X152102750Y-80975622D01*
X152102747Y-80975620D01*
X152008344Y-80936517D01*
X151956715Y-80915132D01*
X151937125Y-80912553D01*
X151800007Y-80894500D01*
X151800000Y-80894500D01*
X149900000Y-80894500D01*
X149899992Y-80894500D01*
X149743285Y-80915132D01*
X149743284Y-80915132D01*
X149597252Y-80975620D01*
X149597249Y-80975622D01*
X149471848Y-81071845D01*
X149471841Y-81071851D01*
X148771847Y-81771845D01*
X148749489Y-81800985D01*
X148693062Y-81842189D01*
X148651112Y-81849500D01*
X148152493Y-81849500D01*
X147860008Y-81888005D01*
X147576144Y-81964067D01*
X147576139Y-81964068D01*
X147575053Y-81964358D01*
X147302499Y-82077254D01*
X147302489Y-82077258D01*
X147047006Y-82224761D01*
X146812959Y-82404352D01*
X146812952Y-82404358D01*
X141062376Y-88154935D01*
X141001053Y-88188420D01*
X140931361Y-88183436D01*
X140887014Y-88154935D01*
X140810292Y-88078213D01*
X140810288Y-88078210D01*
X140679185Y-87990609D01*
X140679172Y-87990602D01*
X140533501Y-87930264D01*
X140533489Y-87930261D01*
X140378845Y-87899500D01*
X140378842Y-87899500D01*
X140221158Y-87899500D01*
X140221155Y-87899500D01*
X140066510Y-87930261D01*
X140066498Y-87930264D01*
X139920827Y-87990602D01*
X139920814Y-87990609D01*
X139793391Y-88075751D01*
X139726713Y-88096629D01*
X139659333Y-88078144D01*
X139612643Y-88026165D01*
X139600500Y-87972649D01*
X139600500Y-87821155D01*
X139600499Y-87821153D01*
X139569738Y-87666510D01*
X139569737Y-87666503D01*
X139561337Y-87646224D01*
X139509397Y-87520827D01*
X139509390Y-87520814D01*
X139421789Y-87389711D01*
X139421786Y-87389707D01*
X139310292Y-87278213D01*
X139310288Y-87278210D01*
X139179185Y-87190609D01*
X139179172Y-87190602D01*
X139033501Y-87130264D01*
X139033489Y-87130261D01*
X138878845Y-87099500D01*
X138878842Y-87099500D01*
X138721158Y-87099500D01*
X138721155Y-87099500D01*
X138566510Y-87130261D01*
X138566498Y-87130264D01*
X138420827Y-87190602D01*
X138420814Y-87190609D01*
X138289711Y-87278210D01*
X138289707Y-87278213D01*
X138178213Y-87389707D01*
X138178210Y-87389711D01*
X138090609Y-87520814D01*
X138090602Y-87520827D01*
X138030264Y-87666498D01*
X138030261Y-87666510D01*
X137999500Y-87821153D01*
X137999500Y-87978846D01*
X138030261Y-88133489D01*
X138030264Y-88133501D01*
X138090602Y-88279172D01*
X138090609Y-88279185D01*
X138178210Y-88410288D01*
X138178213Y-88410292D01*
X138289707Y-88521786D01*
X138289711Y-88521789D01*
X138420814Y-88609390D01*
X138420827Y-88609397D01*
X138550395Y-88663065D01*
X138566503Y-88669737D01*
X138718644Y-88700000D01*
X138721153Y-88700499D01*
X138721156Y-88700500D01*
X138721158Y-88700500D01*
X138878844Y-88700500D01*
X138878845Y-88700499D01*
X139033497Y-88669737D01*
X139179179Y-88609394D01*
X139207357Y-88590566D01*
X139306609Y-88524248D01*
X139373286Y-88503370D01*
X139440666Y-88521854D01*
X139487357Y-88573833D01*
X139499500Y-88627350D01*
X139499500Y-88778846D01*
X139530261Y-88933489D01*
X139530264Y-88933501D01*
X139590602Y-89079172D01*
X139590609Y-89079185D01*
X139678210Y-89210288D01*
X139678213Y-89210292D01*
X139754935Y-89287014D01*
X139788420Y-89348337D01*
X139783436Y-89418029D01*
X139754935Y-89462376D01*
X136263961Y-92953351D01*
X136212180Y-93005132D01*
X136150857Y-93038617D01*
X136081165Y-93033633D01*
X136025232Y-92991761D01*
X136000815Y-92926297D01*
X136000499Y-92917451D01*
X136000499Y-86421153D01*
X139899500Y-86421153D01*
X139899500Y-86578846D01*
X139930261Y-86733489D01*
X139930264Y-86733501D01*
X139990602Y-86879172D01*
X139990609Y-86879185D01*
X140078210Y-87010288D01*
X140078213Y-87010292D01*
X140189707Y-87121786D01*
X140189711Y-87121789D01*
X140320814Y-87209390D01*
X140320827Y-87209397D01*
X140466498Y-87269735D01*
X140466503Y-87269737D01*
X140621153Y-87300499D01*
X140621156Y-87300500D01*
X140621158Y-87300500D01*
X140778844Y-87300500D01*
X140778845Y-87300499D01*
X140933497Y-87269737D01*
X141079179Y-87209394D01*
X141210289Y-87121789D01*
X141321789Y-87010289D01*
X141409394Y-86879179D01*
X141469737Y-86733497D01*
X141500500Y-86578842D01*
X141500500Y-86421158D01*
X141500500Y-86421155D01*
X141500499Y-86421153D01*
X141496290Y-86399991D01*
X141469737Y-86266503D01*
X141469735Y-86266498D01*
X141409397Y-86120827D01*
X141409390Y-86120814D01*
X141321789Y-85989711D01*
X141321786Y-85989707D01*
X141210292Y-85878213D01*
X141210288Y-85878210D01*
X141079185Y-85790609D01*
X141079172Y-85790602D01*
X140933501Y-85730264D01*
X140933489Y-85730261D01*
X140778845Y-85699500D01*
X140778842Y-85699500D01*
X140621158Y-85699500D01*
X140621155Y-85699500D01*
X140466510Y-85730261D01*
X140466498Y-85730264D01*
X140320827Y-85790602D01*
X140320814Y-85790609D01*
X140189711Y-85878210D01*
X140189707Y-85878213D01*
X140078213Y-85989707D01*
X140078210Y-85989711D01*
X139990609Y-86120814D01*
X139990602Y-86120827D01*
X139930264Y-86266498D01*
X139930261Y-86266510D01*
X139899500Y-86421153D01*
X136000499Y-86421153D01*
X136000499Y-83921153D01*
X139299500Y-83921153D01*
X139299500Y-84078846D01*
X139330261Y-84233489D01*
X139330264Y-84233501D01*
X139390602Y-84379172D01*
X139390609Y-84379185D01*
X139478210Y-84510288D01*
X139478213Y-84510292D01*
X139589707Y-84621786D01*
X139589711Y-84621789D01*
X139720814Y-84709390D01*
X139720827Y-84709397D01*
X139866498Y-84769735D01*
X139866503Y-84769737D01*
X140021153Y-84800499D01*
X140021156Y-84800500D01*
X140021158Y-84800500D01*
X140178844Y-84800500D01*
X140178845Y-84800499D01*
X140333497Y-84769737D01*
X140479179Y-84709394D01*
X140610289Y-84621789D01*
X140721789Y-84510289D01*
X140809394Y-84379179D01*
X140869737Y-84233497D01*
X140900500Y-84078842D01*
X140900500Y-83921158D01*
X140900500Y-83921155D01*
X140900499Y-83921153D01*
X140869738Y-83766510D01*
X140869737Y-83766503D01*
X140825629Y-83660015D01*
X140809397Y-83620827D01*
X140809390Y-83620814D01*
X140721789Y-83489711D01*
X140721786Y-83489707D01*
X140610292Y-83378213D01*
X140610288Y-83378210D01*
X140479185Y-83290609D01*
X140479172Y-83290602D01*
X140333501Y-83230264D01*
X140333489Y-83230261D01*
X140178845Y-83199500D01*
X140178842Y-83199500D01*
X140021158Y-83199500D01*
X140021155Y-83199500D01*
X139866510Y-83230261D01*
X139866498Y-83230264D01*
X139720827Y-83290602D01*
X139720814Y-83290609D01*
X139589711Y-83378210D01*
X139589707Y-83378213D01*
X139478213Y-83489707D01*
X139478210Y-83489711D01*
X139390609Y-83620814D01*
X139390602Y-83620827D01*
X139330264Y-83766498D01*
X139330261Y-83766510D01*
X139299500Y-83921153D01*
X136000499Y-83921153D01*
X136000499Y-81321153D01*
X139499500Y-81321153D01*
X139499500Y-81478846D01*
X139530261Y-81633489D01*
X139530264Y-81633501D01*
X139590602Y-81779172D01*
X139590609Y-81779185D01*
X139678210Y-81910288D01*
X139678213Y-81910292D01*
X139789707Y-82021786D01*
X139789711Y-82021789D01*
X139920814Y-82109390D01*
X139920827Y-82109397D01*
X140066498Y-82169735D01*
X140066503Y-82169737D01*
X140221153Y-82200499D01*
X140221156Y-82200500D01*
X140221158Y-82200500D01*
X140378844Y-82200500D01*
X140378845Y-82200499D01*
X140533497Y-82169737D01*
X140679179Y-82109394D01*
X140810289Y-82021789D01*
X140921789Y-81910289D01*
X141009394Y-81779179D01*
X141069737Y-81633497D01*
X141100500Y-81478842D01*
X141100500Y-81321158D01*
X141100500Y-81321155D01*
X141100499Y-81321153D01*
X141069738Y-81166510D01*
X141069737Y-81166503D01*
X141069735Y-81166498D01*
X141009397Y-81020827D01*
X141009390Y-81020814D01*
X140921789Y-80889711D01*
X140921786Y-80889707D01*
X140810292Y-80778213D01*
X140810288Y-80778210D01*
X140679185Y-80690609D01*
X140679172Y-80690602D01*
X140533501Y-80630264D01*
X140533489Y-80630261D01*
X140378845Y-80599500D01*
X140378842Y-80599500D01*
X140221158Y-80599500D01*
X140221155Y-80599500D01*
X140066510Y-80630261D01*
X140066498Y-80630264D01*
X139920827Y-80690602D01*
X139920814Y-80690609D01*
X139789711Y-80778210D01*
X139789707Y-80778213D01*
X139678213Y-80889707D01*
X139678210Y-80889711D01*
X139590609Y-81020814D01*
X139590602Y-81020827D01*
X139530264Y-81166498D01*
X139530261Y-81166510D01*
X139499500Y-81321153D01*
X136000499Y-81321153D01*
X136000499Y-73881995D01*
X138199500Y-73881995D01*
X138199500Y-74118004D01*
X138199501Y-74118020D01*
X138230306Y-74352010D01*
X138291394Y-74579993D01*
X138381714Y-74798045D01*
X138381719Y-74798056D01*
X138452677Y-74920957D01*
X138499727Y-75002450D01*
X138499729Y-75002453D01*
X138499730Y-75002454D01*
X138643406Y-75189697D01*
X138643412Y-75189704D01*
X138810295Y-75356587D01*
X138810301Y-75356592D01*
X138997550Y-75500273D01*
X139128918Y-75576118D01*
X139201943Y-75618280D01*
X139201948Y-75618282D01*
X139201951Y-75618284D01*
X139420007Y-75708606D01*
X139647986Y-75769693D01*
X139881989Y-75800500D01*
X139881996Y-75800500D01*
X140118004Y-75800500D01*
X140118011Y-75800500D01*
X140352014Y-75769693D01*
X140579993Y-75708606D01*
X140798049Y-75618284D01*
X141002450Y-75500273D01*
X141189699Y-75356592D01*
X141356592Y-75189699D01*
X141500273Y-75002450D01*
X141618284Y-74798049D01*
X141708606Y-74579993D01*
X141769693Y-74352014D01*
X141800500Y-74118011D01*
X141800500Y-73881995D01*
X161199500Y-73881995D01*
X161199500Y-74118004D01*
X161199501Y-74118020D01*
X161230306Y-74352010D01*
X161291394Y-74579993D01*
X161381714Y-74798045D01*
X161381719Y-74798056D01*
X161452677Y-74920957D01*
X161499727Y-75002450D01*
X161499729Y-75002453D01*
X161499730Y-75002454D01*
X161643406Y-75189697D01*
X161643412Y-75189704D01*
X161810295Y-75356587D01*
X161810301Y-75356592D01*
X161997550Y-75500273D01*
X162128918Y-75576118D01*
X162201943Y-75618280D01*
X162201948Y-75618282D01*
X162201951Y-75618284D01*
X162420007Y-75708606D01*
X162647986Y-75769693D01*
X162881989Y-75800500D01*
X162881996Y-75800500D01*
X163118004Y-75800500D01*
X163118011Y-75800500D01*
X163352014Y-75769693D01*
X163579993Y-75708606D01*
X163798049Y-75618284D01*
X164002450Y-75500273D01*
X164189699Y-75356592D01*
X164356592Y-75189699D01*
X164500273Y-75002450D01*
X164618284Y-74798049D01*
X164708606Y-74579993D01*
X164769693Y-74352014D01*
X164800500Y-74118011D01*
X164800500Y-73881989D01*
X164769693Y-73647986D01*
X164708606Y-73420007D01*
X164618284Y-73201951D01*
X164618282Y-73201948D01*
X164618280Y-73201943D01*
X164576118Y-73128918D01*
X164500273Y-72997550D01*
X164372619Y-72831188D01*
X164356593Y-72810302D01*
X164356587Y-72810295D01*
X164189704Y-72643412D01*
X164189697Y-72643406D01*
X164002454Y-72499730D01*
X164002453Y-72499729D01*
X164002450Y-72499727D01*
X163920957Y-72452677D01*
X163798056Y-72381719D01*
X163798045Y-72381714D01*
X163579993Y-72291394D01*
X163352010Y-72230306D01*
X163118020Y-72199501D01*
X163118017Y-72199500D01*
X163118011Y-72199500D01*
X162881989Y-72199500D01*
X162881983Y-72199500D01*
X162881979Y-72199501D01*
X162647989Y-72230306D01*
X162420006Y-72291394D01*
X162201954Y-72381714D01*
X162201943Y-72381719D01*
X161997545Y-72499730D01*
X161810302Y-72643406D01*
X161810295Y-72643412D01*
X161643412Y-72810295D01*
X161643406Y-72810302D01*
X161499730Y-72997545D01*
X161499727Y-72997549D01*
X161499727Y-72997550D01*
X161497635Y-73001174D01*
X161381719Y-73201943D01*
X161381714Y-73201954D01*
X161291394Y-73420006D01*
X161230306Y-73647989D01*
X161199501Y-73881979D01*
X161199500Y-73881995D01*
X141800500Y-73881995D01*
X141800500Y-73881989D01*
X141769693Y-73647986D01*
X141708606Y-73420007D01*
X141618284Y-73201951D01*
X141618282Y-73201948D01*
X141618280Y-73201943D01*
X141576118Y-73128918D01*
X141500273Y-72997550D01*
X141372619Y-72831188D01*
X141356593Y-72810302D01*
X141356587Y-72810295D01*
X141189704Y-72643412D01*
X141189697Y-72643406D01*
X141002454Y-72499730D01*
X141002453Y-72499729D01*
X141002450Y-72499727D01*
X140920957Y-72452677D01*
X140798056Y-72381719D01*
X140798045Y-72381714D01*
X140579993Y-72291394D01*
X140352010Y-72230306D01*
X140118020Y-72199501D01*
X140118017Y-72199500D01*
X140118011Y-72199500D01*
X139881989Y-72199500D01*
X139881983Y-72199500D01*
X139881979Y-72199501D01*
X139647989Y-72230306D01*
X139420006Y-72291394D01*
X139201954Y-72381714D01*
X139201943Y-72381719D01*
X138997545Y-72499730D01*
X138810302Y-72643406D01*
X138810295Y-72643412D01*
X138643412Y-72810295D01*
X138643406Y-72810302D01*
X138499730Y-72997545D01*
X138499727Y-72997549D01*
X138499727Y-72997550D01*
X138497635Y-73001174D01*
X138381719Y-73201943D01*
X138381714Y-73201954D01*
X138291394Y-73420006D01*
X138230306Y-73647989D01*
X138199501Y-73881979D01*
X138199500Y-73881995D01*
X136000499Y-73881995D01*
X136000499Y-73504066D01*
X136000764Y-73495956D01*
X136005742Y-73420006D01*
X136017074Y-73247102D01*
X136019188Y-73231050D01*
X136067045Y-72990459D01*
X136071242Y-72974798D01*
X136119990Y-72831190D01*
X136150092Y-72742513D01*
X136156290Y-72727547D01*
X136264789Y-72507533D01*
X136272896Y-72493493D01*
X136325676Y-72414502D01*
X136409176Y-72289534D01*
X136419038Y-72276681D01*
X136580785Y-72092244D01*
X136592243Y-72080786D01*
X136776681Y-71919038D01*
X136789526Y-71909181D01*
X136993497Y-71772892D01*
X137007532Y-71764789D01*
X137227546Y-71656290D01*
X137242512Y-71650092D01*
X137406762Y-71594336D01*
X137474797Y-71571242D01*
X137490464Y-71567044D01*
X137731048Y-71519189D01*
X137747102Y-71517074D01*
X137995942Y-71500765D01*
X138004052Y-71500500D01*
X138092710Y-71500500D01*
X140078871Y-71500500D01*
X140078876Y-71500501D01*
G37*
G04 #@! TD.AperFunction*
M02*
