G04 #@! TF.GenerationSoftware,KiCad,Pcbnew,9.0.6*
G04 #@! TF.CreationDate,2026-01-16T12:51:44-08:00*
G04 #@! TF.ProjectId,UrchinCam_01,55726368-696e-4436-916d-5f30312e6b69,rev?*
G04 #@! TF.SameCoordinates,Original*
G04 #@! TF.FileFunction,Paste,Bot*
G04 #@! TF.FilePolarity,Positive*
%FSLAX46Y46*%
G04 Gerber Fmt 4.6, Leading zero omitted, Abs format (unit mm)*
G04 Created by KiCad (PCBNEW 9.0.6) date 2026-01-16 12:51:44*
%MOMM*%
%LPD*%
G01*
G04 APERTURE LIST*
G04 Aperture macros list*
%AMRoundRect*
0 Rectangle with rounded corners*
0 $1 Rounding radius*
0 $2 $3 $4 $5 $6 $7 $8 $9 X,Y pos of 4 corners*
0 Add a 4 corners polygon primitive as box body*
4,1,4,$2,$3,$4,$5,$6,$7,$8,$9,$2,$3,0*
0 Add four circle primitives for the rounded corners*
1,1,$1+$1,$2,$3*
1,1,$1+$1,$4,$5*
1,1,$1+$1,$6,$7*
1,1,$1+$1,$8,$9*
0 Add four rect primitives between the rounded corners*
20,1,$1+$1,$2,$3,$4,$5,0*
20,1,$1+$1,$4,$5,$6,$7,0*
20,1,$1+$1,$6,$7,$8,$9,0*
20,1,$1+$1,$8,$9,$2,$3,0*%
G04 Aperture macros list end*
%ADD10C,0.000000*%
%ADD11RoundRect,0.150000X-0.700000X0.150000X-0.700000X-0.150000X0.700000X-0.150000X0.700000X0.150000X0*%
%ADD12RoundRect,0.250000X-1.100000X0.250000X-1.100000X-0.250000X1.100000X-0.250000X1.100000X0.250000X0*%
%ADD13R,1.100000X0.250000*%
%ADD14RoundRect,0.160000X0.197500X0.160000X-0.197500X0.160000X-0.197500X-0.160000X0.197500X-0.160000X0*%
%ADD15RoundRect,0.155000X-0.212500X-0.155000X0.212500X-0.155000X0.212500X0.155000X-0.212500X0.155000X0*%
%ADD16RoundRect,0.237500X-0.237500X0.250000X-0.237500X-0.250000X0.237500X-0.250000X0.237500X0.250000X0*%
%ADD17RoundRect,0.155000X0.212500X0.155000X-0.212500X0.155000X-0.212500X-0.155000X0.212500X-0.155000X0*%
%ADD18RoundRect,0.237500X0.237500X-0.250000X0.237500X0.250000X-0.237500X0.250000X-0.237500X-0.250000X0*%
%ADD19RoundRect,0.250000X0.450000X0.350000X-0.450000X0.350000X-0.450000X-0.350000X0.450000X-0.350000X0*%
%ADD20R,1.701800X0.762000*%
%ADD21R,0.204000X0.699999*%
%ADD22R,0.204000X0.949999*%
%ADD23R,0.699999X0.204000*%
%ADD24RoundRect,0.155000X-0.155000X0.212500X-0.155000X-0.212500X0.155000X-0.212500X0.155000X0.212500X0*%
%ADD25R,0.254000X0.675000*%
%ADD26R,0.675000X0.254000*%
%ADD27RoundRect,0.155000X0.155000X-0.212500X0.155000X0.212500X-0.155000X0.212500X-0.155000X-0.212500X0*%
%ADD28R,0.400000X0.550000*%
%ADD29R,0.500000X0.700000*%
%ADD30RoundRect,0.150000X-0.150000X-0.700000X0.150000X-0.700000X0.150000X0.700000X-0.150000X0.700000X0*%
%ADD31RoundRect,0.250000X-0.250000X-1.100000X0.250000X-1.100000X0.250000X1.100000X-0.250000X1.100000X0*%
%ADD32R,0.254800X0.807999*%
%ADD33R,0.807999X0.254800*%
%ADD34R,2.692400X2.692400*%
G04 APERTURE END LIST*
D10*
G36*
X150900000Y-108200000D02*
G01*
X149753800Y-108200000D01*
X149753800Y-107053800D01*
X150900000Y-107053800D01*
X150900000Y-108200000D01*
G37*
G36*
X150900000Y-109546200D02*
G01*
X149753800Y-109546200D01*
X149753800Y-108400000D01*
X150900000Y-108400000D01*
X150900000Y-109546200D01*
G37*
G36*
X152246200Y-108200000D02*
G01*
X151100000Y-108200000D01*
X151100000Y-107053800D01*
X152246200Y-107053800D01*
X152246200Y-108200000D01*
G37*
G36*
X152246200Y-109546200D02*
G01*
X151100000Y-109546200D01*
X151100000Y-108400000D01*
X152246200Y-108400000D01*
X152246200Y-109546200D01*
G37*
D11*
X160200000Y-102466667D03*
X160200000Y-103716667D03*
X160200000Y-104966667D03*
X160200000Y-106216667D03*
D12*
X163400000Y-100616667D03*
X163400000Y-108066667D03*
D13*
X153050000Y-124000000D03*
X153050000Y-124500000D03*
X153050000Y-125000000D03*
X153050000Y-125500000D03*
X153050000Y-126000000D03*
X148750000Y-126000000D03*
X148750000Y-125500000D03*
X148750000Y-125000000D03*
X148750000Y-124500000D03*
X148750000Y-124000000D03*
D14*
X156245000Y-110800000D03*
X155050000Y-110800000D03*
D15*
X155100000Y-109700000D03*
X156235000Y-109700000D03*
X145065000Y-106100000D03*
X146200000Y-106100000D03*
D11*
X160200000Y-122300000D03*
X160200000Y-123550000D03*
X160200000Y-124800000D03*
X160200000Y-126050000D03*
D12*
X163400000Y-120450000D03*
X163400000Y-127900000D03*
D11*
X160200000Y-112383333D03*
X160200000Y-113633333D03*
X160200000Y-114883333D03*
X160200000Y-116133333D03*
D12*
X163400000Y-110533333D03*
X163400000Y-117983333D03*
D15*
X155332500Y-119500000D03*
X156467500Y-119500000D03*
D16*
X138600000Y-89675000D03*
X138600000Y-91500000D03*
D17*
X146200000Y-111400000D03*
X145065000Y-111400000D03*
D18*
X140300000Y-104000000D03*
X140300000Y-102175000D03*
D16*
X140200000Y-89675000D03*
X140200000Y-91500000D03*
D19*
X146700000Y-109550000D03*
X144500000Y-109550000D03*
X144500000Y-107850000D03*
X146700000Y-107850000D03*
D20*
X147160401Y-101005000D03*
X147160401Y-99735000D03*
X147160401Y-98465000D03*
X147160401Y-97195000D03*
X147160401Y-95925000D03*
X147160401Y-94655000D03*
X147160401Y-93385000D03*
X147160401Y-92115000D03*
X155960399Y-92115000D03*
X155960399Y-93385000D03*
X155960399Y-94655000D03*
X155960399Y-95925000D03*
X155960399Y-97195000D03*
X155960399Y-98465000D03*
X155960399Y-99735000D03*
X155960399Y-101005000D03*
D21*
X155849999Y-123695900D03*
D22*
X156350000Y-123820901D03*
X156850000Y-123820901D03*
D21*
X157350001Y-123695900D03*
D23*
X157604100Y-124450000D03*
X157604100Y-124950000D03*
D21*
X157350001Y-125704100D03*
D22*
X156850000Y-125579099D03*
X156350000Y-125579099D03*
D21*
X155849999Y-125704100D03*
D23*
X155595900Y-124950000D03*
X155595900Y-124450000D03*
D24*
X146900000Y-125032500D03*
X146900000Y-126167500D03*
D15*
X152632500Y-122500000D03*
X153767500Y-122500000D03*
D16*
X137000000Y-89675000D03*
X137000000Y-91500000D03*
D17*
X153467500Y-116400000D03*
X152332500Y-116400000D03*
D14*
X151397500Y-122500000D03*
X150202500Y-122500000D03*
D25*
X153850000Y-117937500D03*
D26*
X153987500Y-118850000D03*
X153987500Y-119350000D03*
X153987500Y-119850000D03*
X153987500Y-120350000D03*
D25*
X153850000Y-121262500D03*
X153350000Y-121262500D03*
X152850000Y-121262500D03*
X152350000Y-121262500D03*
X151850000Y-121262500D03*
X151350000Y-121262500D03*
X150850000Y-121262500D03*
X150350000Y-121262500D03*
X149850000Y-121262500D03*
X149350000Y-121262500D03*
D26*
X149212500Y-120350000D03*
X149212500Y-119850000D03*
X149212500Y-119350000D03*
X149212500Y-118850000D03*
D25*
X149350000Y-117937500D03*
X149850000Y-117937500D03*
X150350000Y-117937500D03*
X150850000Y-117937500D03*
X151350000Y-117937500D03*
X151850000Y-117937500D03*
X152350000Y-117937500D03*
X152850000Y-117937500D03*
X153350000Y-117937500D03*
D11*
X160200000Y-95050000D03*
X160200000Y-96300000D03*
D12*
X163400000Y-93200000D03*
X163400000Y-98150000D03*
D14*
X156500000Y-120600000D03*
X155305000Y-120600000D03*
D27*
X139800000Y-107567500D03*
X139800000Y-106432500D03*
D15*
X155100000Y-107500000D03*
X156235000Y-107500000D03*
D28*
X138425000Y-93575000D03*
X138425000Y-94925000D03*
D29*
X137700000Y-93500000D03*
X137700000Y-95000000D03*
D28*
X136975000Y-93575000D03*
X136975000Y-94925000D03*
D24*
X154800000Y-127000000D03*
X154800000Y-128135000D03*
D30*
X150800000Y-78300000D03*
X152050000Y-78300000D03*
D31*
X148950000Y-75100000D03*
X153900000Y-75100000D03*
D15*
X155100000Y-106400000D03*
X156235000Y-106400000D03*
D18*
X137100000Y-104000000D03*
X137100000Y-102175000D03*
D24*
X155900000Y-127000000D03*
X155900000Y-128135000D03*
D28*
X136975000Y-99975000D03*
X136975000Y-98625000D03*
D29*
X137700000Y-100050000D03*
X137700000Y-98550000D03*
D28*
X138425000Y-99975000D03*
X138425000Y-98625000D03*
D15*
X155100000Y-108600000D03*
X156235000Y-108600000D03*
D27*
X139700000Y-125067500D03*
X139700000Y-123932500D03*
D18*
X138700000Y-104000000D03*
X138700000Y-102175000D03*
D32*
X149750000Y-106410100D03*
X150249999Y-106410100D03*
X150750000Y-106410100D03*
X151250000Y-106410100D03*
X151750001Y-106410100D03*
X152250000Y-106410100D03*
D33*
X152889900Y-107050000D03*
X152889900Y-107549999D03*
X152889900Y-108050000D03*
X152889900Y-108550000D03*
X152889900Y-109050001D03*
X152889900Y-109550000D03*
D32*
X152250000Y-110189900D03*
X151750001Y-110189900D03*
X151250000Y-110189900D03*
X150750000Y-110189900D03*
X150249999Y-110189900D03*
X149750000Y-110189900D03*
D33*
X149110100Y-109550000D03*
X149110100Y-109050001D03*
X149110100Y-108550000D03*
X149110100Y-108050000D03*
X149110100Y-107549999D03*
X149110100Y-107050000D03*
D34*
X151000000Y-108300000D03*
M02*
