G04 #@! TF.GenerationSoftware,KiCad,Pcbnew,9.0.6*
G04 #@! TF.CreationDate,2026-01-16T12:51:44-08:00*
G04 #@! TF.ProjectId,UrchinCam_01,55726368-696e-4436-916d-5f30312e6b69,rev?*
G04 #@! TF.SameCoordinates,Original*
G04 #@! TF.FileFunction,Paste,Top*
G04 #@! TF.FilePolarity,Positive*
%FSLAX46Y46*%
G04 Gerber Fmt 4.6, Leading zero omitted, Abs format (unit mm)*
G04 Created by KiCad (PCBNEW 9.0.6) date 2026-01-16 12:51:44*
%MOMM*%
%LPD*%
G01*
G04 APERTURE LIST*
G04 Aperture macros list*
%AMRoundRect*
0 Rectangle with rounded corners*
0 $1 Rounding radius*
0 $2 $3 $4 $5 $6 $7 $8 $9 X,Y pos of 4 corners*
0 Add a 4 corners polygon primitive as box body*
4,1,4,$2,$3,$4,$5,$6,$7,$8,$9,$2,$3,0*
0 Add four circle primitives for the rounded corners*
1,1,$1+$1,$2,$3*
1,1,$1+$1,$4,$5*
1,1,$1+$1,$6,$7*
1,1,$1+$1,$8,$9*
0 Add four rect primitives between the rounded corners*
20,1,$1+$1,$2,$3,$4,$5,0*
20,1,$1+$1,$4,$5,$6,$7,0*
20,1,$1+$1,$6,$7,$8,$9,0*
20,1,$1+$1,$8,$9,$2,$3,0*%
G04 Aperture macros list end*
%ADD10RoundRect,0.160000X-0.197500X-0.160000X0.197500X-0.160000X0.197500X0.160000X-0.197500X0.160000X0*%
%ADD11RoundRect,0.155000X0.155000X-0.212500X0.155000X0.212500X-0.155000X0.212500X-0.155000X-0.212500X0*%
%ADD12RoundRect,0.155000X0.212500X0.155000X-0.212500X0.155000X-0.212500X-0.155000X0.212500X-0.155000X0*%
%ADD13RoundRect,0.155000X-0.212500X-0.155000X0.212500X-0.155000X0.212500X0.155000X-0.212500X0.155000X0*%
%ADD14RoundRect,0.160000X-0.160000X0.197500X-0.160000X-0.197500X0.160000X-0.197500X0.160000X0.197500X0*%
%ADD15RoundRect,0.155000X-0.155000X0.212500X-0.155000X-0.212500X0.155000X-0.212500X0.155000X0.212500X0*%
%ADD16RoundRect,0.160000X0.160000X-0.197500X0.160000X0.197500X-0.160000X0.197500X-0.160000X-0.197500X0*%
%ADD17RoundRect,0.250000X-0.650000X0.412500X-0.650000X-0.412500X0.650000X-0.412500X0.650000X0.412500X0*%
%ADD18RoundRect,0.250000X-0.337500X-0.475000X0.337500X-0.475000X0.337500X0.475000X-0.337500X0.475000X0*%
%ADD19R,3.175000X1.270000*%
G04 APERTURE END LIST*
D10*
X159702500Y-126300000D03*
X160897500Y-126300000D03*
D11*
X147400000Y-105700000D03*
X147400000Y-104565000D03*
D12*
X159335000Y-84840000D03*
X158200000Y-84840000D03*
D13*
X159732500Y-125200000D03*
X160867500Y-125200000D03*
D10*
X146702500Y-116600000D03*
X147897500Y-116600000D03*
D14*
X153800000Y-93507500D03*
X153800000Y-94702500D03*
D13*
X154600000Y-82640000D03*
X155735000Y-82640000D03*
D12*
X149635000Y-111300000D03*
X148500000Y-111300000D03*
D15*
X155300000Y-112032500D03*
X155300000Y-113167500D03*
D13*
X155100000Y-108600000D03*
X156235000Y-108600000D03*
D16*
X148400000Y-113895000D03*
X148400000Y-112700000D03*
X153800000Y-99800000D03*
X153800000Y-98605000D03*
D15*
X153100000Y-112032500D03*
X153100000Y-113167500D03*
D16*
X150800000Y-113897500D03*
X150800000Y-112702500D03*
D17*
X151800000Y-97237500D03*
X151800000Y-100362500D03*
D12*
X151567500Y-105300000D03*
X150432500Y-105300000D03*
D10*
X146602500Y-118900000D03*
X147797500Y-118900000D03*
D15*
X152700000Y-102437500D03*
X152700000Y-103572500D03*
D16*
X152000000Y-113897500D03*
X152000000Y-112702500D03*
D12*
X159335000Y-83540000D03*
X158200000Y-83540000D03*
D13*
X159732500Y-123500000D03*
X160867500Y-123500000D03*
D16*
X149600000Y-113897500D03*
X149600000Y-112702500D03*
D13*
X155100000Y-109700000D03*
X156235000Y-109700000D03*
D10*
X146502500Y-122300000D03*
X147697500Y-122300000D03*
D18*
X154162500Y-84440000D03*
X156237500Y-84440000D03*
D19*
X142731000Y-127130000D03*
X137270000Y-127130000D03*
X142731000Y-124590000D03*
X137270000Y-124590000D03*
X142731000Y-122050000D03*
X137270000Y-122050000D03*
X142731000Y-119510000D03*
X137270000Y-119510000D03*
X142731000Y-116970000D03*
X137270000Y-116970000D03*
X142731000Y-114430000D03*
X137270000Y-114430000D03*
X142731000Y-111890000D03*
X137270000Y-111890000D03*
X142731000Y-109350000D03*
X137270000Y-109350000D03*
X142731000Y-106810000D03*
X137270000Y-106810000D03*
X142731000Y-104270000D03*
X137270000Y-104270000D03*
X142731000Y-101730000D03*
X137270000Y-101730000D03*
X142731000Y-99190000D03*
X137270000Y-99190000D03*
X142731000Y-96650000D03*
X137270000Y-96650000D03*
X142731000Y-94110000D03*
X137270000Y-94110000D03*
X142731000Y-91570000D03*
X137270000Y-91570000D03*
X142731000Y-89030000D03*
X137270000Y-89030000D03*
X142731000Y-86490000D03*
X137270000Y-86490000D03*
X142731000Y-83950000D03*
X137270000Y-83950000D03*
X142731000Y-81410000D03*
X137270000Y-81410000D03*
X142731000Y-78870000D03*
X137270000Y-78870000D03*
D12*
X147267500Y-96700000D03*
X146132500Y-96700000D03*
D14*
X148400000Y-104555000D03*
X148400000Y-105750000D03*
D15*
X154200000Y-112032500D03*
X154200000Y-113167500D03*
M02*
