G04 #@! TF.GenerationSoftware,KiCad,Pcbnew,9.0.6*
G04 #@! TF.CreationDate,2026-01-16T12:51:44-08:00*
G04 #@! TF.ProjectId,UrchinCam_01,55726368-696e-4436-916d-5f30312e6b69,rev?*
G04 #@! TF.SameCoordinates,Original*
G04 #@! TF.FileFunction,Copper,L1,Top*
G04 #@! TF.FilePolarity,Positive*
%FSLAX46Y46*%
G04 Gerber Fmt 4.6, Leading zero omitted, Abs format (unit mm)*
G04 Created by KiCad (PCBNEW 9.0.6) date 2026-01-16 12:51:44*
%MOMM*%
%LPD*%
G01*
G04 APERTURE LIST*
G04 Aperture macros list*
%AMRoundRect*
0 Rectangle with rounded corners*
0 $1 Rounding radius*
0 $2 $3 $4 $5 $6 $7 $8 $9 X,Y pos of 4 corners*
0 Add a 4 corners polygon primitive as box body*
4,1,4,$2,$3,$4,$5,$6,$7,$8,$9,$2,$3,0*
0 Add four circle primitives for the rounded corners*
1,1,$1+$1,$2,$3*
1,1,$1+$1,$4,$5*
1,1,$1+$1,$6,$7*
1,1,$1+$1,$8,$9*
0 Add four rect primitives between the rounded corners*
20,1,$1+$1,$2,$3,$4,$5,0*
20,1,$1+$1,$4,$5,$6,$7,0*
20,1,$1+$1,$6,$7,$8,$9,0*
20,1,$1+$1,$8,$9,$2,$3,0*%
G04 Aperture macros list end*
G04 #@! TA.AperFunction,Conductor*
%ADD10C,0.200000*%
G04 #@! TD*
G04 #@! TA.AperFunction,SMDPad,CuDef*
%ADD11RoundRect,0.160000X-0.197500X-0.160000X0.197500X-0.160000X0.197500X0.160000X-0.197500X0.160000X0*%
G04 #@! TD*
G04 #@! TA.AperFunction,SMDPad,CuDef*
%ADD12RoundRect,0.155000X0.155000X-0.212500X0.155000X0.212500X-0.155000X0.212500X-0.155000X-0.212500X0*%
G04 #@! TD*
G04 #@! TA.AperFunction,SMDPad,CuDef*
%ADD13RoundRect,0.155000X0.212500X0.155000X-0.212500X0.155000X-0.212500X-0.155000X0.212500X-0.155000X0*%
G04 #@! TD*
G04 #@! TA.AperFunction,SMDPad,CuDef*
%ADD14RoundRect,0.155000X-0.212500X-0.155000X0.212500X-0.155000X0.212500X0.155000X-0.212500X0.155000X0*%
G04 #@! TD*
G04 #@! TA.AperFunction,SMDPad,CuDef*
%ADD15RoundRect,0.160000X-0.160000X0.197500X-0.160000X-0.197500X0.160000X-0.197500X0.160000X0.197500X0*%
G04 #@! TD*
G04 #@! TA.AperFunction,SMDPad,CuDef*
%ADD16RoundRect,0.155000X-0.155000X0.212500X-0.155000X-0.212500X0.155000X-0.212500X0.155000X0.212500X0*%
G04 #@! TD*
G04 #@! TA.AperFunction,SMDPad,CuDef*
%ADD17RoundRect,0.160000X0.160000X-0.197500X0.160000X0.197500X-0.160000X0.197500X-0.160000X-0.197500X0*%
G04 #@! TD*
G04 #@! TA.AperFunction,SMDPad,CuDef*
%ADD18C,0.500000*%
G04 #@! TD*
G04 #@! TA.AperFunction,SMDPad,CuDef*
%ADD19RoundRect,0.250000X-0.650000X0.412500X-0.650000X-0.412500X0.650000X-0.412500X0.650000X0.412500X0*%
G04 #@! TD*
G04 #@! TA.AperFunction,SMDPad,CuDef*
%ADD20RoundRect,0.250000X-0.337500X-0.475000X0.337500X-0.475000X0.337500X0.475000X-0.337500X0.475000X0*%
G04 #@! TD*
G04 #@! TA.AperFunction,SMDPad,CuDef*
%ADD21R,3.175000X1.270000*%
G04 #@! TD*
G04 #@! TA.AperFunction,ComponentPad*
%ADD22RoundRect,0.250000X-0.750000X0.750000X-0.750000X-0.750000X0.750000X-0.750000X0.750000X0.750000X0*%
G04 #@! TD*
G04 #@! TA.AperFunction,ComponentPad*
%ADD23C,2.000000*%
G04 #@! TD*
G04 #@! TA.AperFunction,ViaPad*
%ADD24C,0.600000*%
G04 #@! TD*
G04 #@! TA.AperFunction,Conductor*
%ADD25C,0.500000*%
G04 #@! TD*
G04 #@! TA.AperFunction,Conductor*
%ADD26C,0.700000*%
G04 #@! TD*
G04 #@! TA.AperFunction,Conductor*
%ADD27C,1.000000*%
G04 #@! TD*
G04 #@! TA.AperFunction,Conductor*
%ADD28C,2.000000*%
G04 #@! TD*
G04 APERTURE END LIST*
D10*
X144200000Y-96800000D02*
X144200000Y-97800000D01*
X143900000Y-98100000D01*
X142400000Y-98100000D01*
X141200000Y-96900000D01*
X141200000Y-96700000D01*
X144100000Y-96700000D01*
X144200000Y-96800000D01*
G04 #@! TA.AperFunction,Conductor*
G36*
X144200000Y-96800000D02*
G01*
X144200000Y-97800000D01*
X143900000Y-98100000D01*
X142400000Y-98100000D01*
X141200000Y-96900000D01*
X141200000Y-96700000D01*
X144100000Y-96700000D01*
X144200000Y-96800000D01*
G37*
G04 #@! TD.AperFunction*
X140500000Y-121400000D02*
X140500000Y-123000000D01*
X140300000Y-123200000D01*
X139500000Y-123200000D01*
X138800000Y-122500000D01*
X138600000Y-122500000D01*
X137800000Y-122500000D01*
X137800000Y-121600000D01*
X138800000Y-121600000D01*
X139200000Y-121200000D01*
X140300000Y-121200000D01*
X140500000Y-121400000D01*
G04 #@! TA.AperFunction,Conductor*
G36*
X140500000Y-121400000D02*
G01*
X140500000Y-123000000D01*
X140300000Y-123200000D01*
X139500000Y-123200000D01*
X138800000Y-122500000D01*
X138600000Y-122500000D01*
X137800000Y-122500000D01*
X137800000Y-121600000D01*
X138800000Y-121600000D01*
X139200000Y-121200000D01*
X140300000Y-121200000D01*
X140500000Y-121400000D01*
G37*
G04 #@! TD.AperFunction*
X141200000Y-116600000D02*
X142700000Y-116600000D01*
X142700000Y-117500000D01*
X141200000Y-117500000D01*
X140900000Y-117800000D01*
X140400000Y-117800000D01*
X140200000Y-117600000D01*
X140200000Y-116500000D01*
X140400000Y-116300000D01*
X140900000Y-116300000D01*
X141200000Y-116600000D01*
G04 #@! TA.AperFunction,Conductor*
G36*
X141200000Y-116600000D02*
G01*
X142700000Y-116600000D01*
X142700000Y-117500000D01*
X141200000Y-117500000D01*
X140900000Y-117800000D01*
X140400000Y-117800000D01*
X140200000Y-117600000D01*
X140200000Y-116500000D01*
X140400000Y-116300000D01*
X140900000Y-116300000D01*
X141200000Y-116600000D01*
G37*
G04 #@! TD.AperFunction*
X138600000Y-127014409D02*
X136100000Y-127014409D01*
X136100000Y-124614409D01*
X138600000Y-124614409D01*
X138600000Y-127014409D01*
G04 #@! TA.AperFunction,Conductor*
G36*
X138600000Y-127014409D02*
G01*
X136100000Y-127014409D01*
X136100000Y-124614409D01*
X138600000Y-124614409D01*
X138600000Y-127014409D01*
G37*
G04 #@! TD.AperFunction*
X158900000Y-89200000D02*
X157900000Y-90200000D01*
X157480000Y-90200000D01*
X156580000Y-89300000D01*
X156580000Y-88800000D01*
X156680000Y-88700000D01*
X158400000Y-88700000D01*
X158900000Y-89200000D01*
G04 #@! TA.AperFunction,Conductor*
G36*
X158900000Y-89200000D02*
G01*
X157900000Y-90200000D01*
X157480000Y-90200000D01*
X156580000Y-89300000D01*
X156580000Y-88800000D01*
X156680000Y-88700000D01*
X158400000Y-88700000D01*
X158900000Y-89200000D01*
G37*
G04 #@! TD.AperFunction*
X140500000Y-111400000D02*
X140500000Y-112500000D01*
X140300000Y-112700000D01*
X139800000Y-112700000D01*
X139500000Y-112400000D01*
X138000000Y-112400000D01*
X138000000Y-111500000D01*
X139500000Y-111500000D01*
X139800000Y-111200000D01*
X140300000Y-111200000D01*
X140500000Y-111400000D01*
G04 #@! TA.AperFunction,Conductor*
G36*
X140500000Y-111400000D02*
G01*
X140500000Y-112500000D01*
X140300000Y-112700000D01*
X139800000Y-112700000D01*
X139500000Y-112400000D01*
X138000000Y-112400000D01*
X138000000Y-111500000D01*
X139500000Y-111500000D01*
X139800000Y-111200000D01*
X140300000Y-111200000D01*
X140500000Y-111400000D01*
G37*
G04 #@! TD.AperFunction*
X145300000Y-78300000D02*
X145300000Y-79400000D01*
X145100000Y-79600000D01*
X144600000Y-79600000D01*
X144300000Y-79300000D01*
X142800000Y-79300000D01*
X142800000Y-78400000D01*
X144300000Y-78400000D01*
X144600000Y-78100000D01*
X145100000Y-78100000D01*
X145300000Y-78300000D01*
G04 #@! TA.AperFunction,Conductor*
G36*
X145300000Y-78300000D02*
G01*
X145300000Y-79400000D01*
X145100000Y-79600000D01*
X144600000Y-79600000D01*
X144300000Y-79300000D01*
X142800000Y-79300000D01*
X142800000Y-78400000D01*
X144300000Y-78400000D01*
X144600000Y-78100000D01*
X145100000Y-78100000D01*
X145300000Y-78300000D01*
G37*
G04 #@! TD.AperFunction*
D11*
X159702500Y-126300000D03*
X160897500Y-126300000D03*
D12*
X147400000Y-105700000D03*
X147400000Y-104565000D03*
D13*
X159335000Y-84840000D03*
X158200000Y-84840000D03*
D14*
X159732500Y-125200000D03*
X160867500Y-125200000D03*
D11*
X146702500Y-116600000D03*
X147897500Y-116600000D03*
D15*
X153800000Y-93507500D03*
X153800000Y-94702500D03*
D14*
X154600000Y-82640000D03*
X155735000Y-82640000D03*
D13*
X149635000Y-111300000D03*
X148500000Y-111300000D03*
D16*
X155300000Y-112032500D03*
X155300000Y-113167500D03*
D14*
X155100000Y-108600000D03*
X156235000Y-108600000D03*
D17*
X148400000Y-113895000D03*
X148400000Y-112700000D03*
X153800000Y-99800000D03*
X153800000Y-98605000D03*
D18*
X137000000Y-130500000D03*
D16*
X153100000Y-112032500D03*
X153100000Y-113167500D03*
D17*
X150800000Y-113897500D03*
X150800000Y-112702500D03*
D19*
X151800000Y-97237500D03*
X151800000Y-100362500D03*
D13*
X151567500Y-105300000D03*
X150432500Y-105300000D03*
D11*
X146602500Y-118900000D03*
X147797500Y-118900000D03*
D16*
X152700000Y-102437500D03*
X152700000Y-103572500D03*
D17*
X152000000Y-113897500D03*
X152000000Y-112702500D03*
D13*
X159335000Y-83540000D03*
X158200000Y-83540000D03*
D14*
X159732500Y-123500000D03*
X160867500Y-123500000D03*
D17*
X149600000Y-113897500D03*
X149600000Y-112702500D03*
D14*
X155100000Y-109700000D03*
X156235000Y-109700000D03*
D11*
X146502500Y-122300000D03*
X147697500Y-122300000D03*
D20*
X154162500Y-84440000D03*
X156237500Y-84440000D03*
D21*
X142731000Y-127130000D03*
X137270000Y-127130000D03*
X142731000Y-124590000D03*
X137270000Y-124590000D03*
X142731000Y-122050000D03*
X137270000Y-122050000D03*
X142731000Y-119510000D03*
X137270000Y-119510000D03*
X142731000Y-116970000D03*
X137270000Y-116970000D03*
X142731000Y-114430000D03*
X137270000Y-114430000D03*
X142731000Y-111890000D03*
X137270000Y-111890000D03*
X142731000Y-109350000D03*
X137270000Y-109350000D03*
X142731000Y-106810000D03*
X137270000Y-106810000D03*
X142731000Y-104270000D03*
X137270000Y-104270000D03*
X142731000Y-101730000D03*
X137270000Y-101730000D03*
X142731000Y-99190000D03*
X137270000Y-99190000D03*
X142731000Y-96650000D03*
X137270000Y-96650000D03*
X142731000Y-94110000D03*
X137270000Y-94110000D03*
X142731000Y-91570000D03*
X137270000Y-91570000D03*
X142731000Y-89030000D03*
X137270000Y-89030000D03*
X142731000Y-86490000D03*
X137270000Y-86490000D03*
X142731000Y-83950000D03*
X137270000Y-83950000D03*
X142731000Y-81410000D03*
X137270000Y-81410000D03*
X142731000Y-78870000D03*
X137270000Y-78870000D03*
D13*
X147267500Y-96700000D03*
X146132500Y-96700000D03*
D18*
X163900000Y-78000000D03*
D15*
X148400000Y-104555000D03*
X148400000Y-105750000D03*
D16*
X154200000Y-112032500D03*
X154200000Y-113167500D03*
D22*
X154960000Y-87200000D03*
D23*
X157500000Y-87200000D03*
X160040000Y-87200000D03*
D24*
X154100000Y-78800000D03*
X140300000Y-122200000D03*
X159400000Y-97000000D03*
X152400000Y-105300000D03*
X154500000Y-121500000D03*
X146200000Y-105400000D03*
X153000000Y-78800000D03*
X145000000Y-110700000D03*
X154700000Y-118600000D03*
X156600000Y-128100000D03*
X160100000Y-97000000D03*
X156400000Y-118700000D03*
X142700000Y-97600000D03*
X150400000Y-109000000D03*
X159900000Y-121300000D03*
X144900000Y-79200000D03*
X151700000Y-107700000D03*
X154200000Y-124900000D03*
X149497022Y-122974000D03*
X157000000Y-107500000D03*
X154800000Y-114000000D03*
X140600000Y-117400000D03*
X147890876Y-108303246D03*
X140100000Y-112300000D03*
X140600000Y-116700000D03*
X153100000Y-114000000D03*
X143700000Y-97600000D03*
X140300000Y-121500000D03*
X156900000Y-122800000D03*
X152400000Y-117200000D03*
X140300000Y-122900000D03*
X154100000Y-79700000D03*
X136300000Y-92600000D03*
X158900000Y-116100000D03*
X139400000Y-86100000D03*
X150400000Y-107700000D03*
X146900000Y-127000000D03*
X153000000Y-79700000D03*
X148300000Y-110500000D03*
X152700000Y-104400000D03*
X160135650Y-127528564D03*
X148400000Y-119800000D03*
X157000000Y-109700000D03*
X151700000Y-109000000D03*
X140100000Y-111600000D03*
X144900000Y-78500000D03*
X145700000Y-97500000D03*
X140000999Y-105400000D03*
X159800000Y-93500000D03*
X159800000Y-94400000D03*
X153200000Y-127600000D03*
X136400000Y-125900000D03*
X143900000Y-115700000D03*
X154000000Y-127500000D03*
X148000000Y-84000000D03*
X150000000Y-81900000D03*
X150900000Y-81900000D03*
X138200000Y-125900000D03*
X144600000Y-115700000D03*
X151700000Y-81900000D03*
X137300000Y-125900000D03*
X153400000Y-127000000D03*
X140000999Y-99600000D03*
X146000000Y-125100000D03*
X153300000Y-117200000D03*
X140500000Y-107567500D03*
X158600000Y-125200003D03*
X158400000Y-123400000D03*
X148500000Y-99700000D03*
X148500000Y-93400000D03*
X149252416Y-105828819D03*
X152800000Y-111100000D03*
X154124265Y-108924265D03*
X154100000Y-108100000D03*
X150750000Y-111200000D03*
X147942345Y-106657655D03*
X154100000Y-111200000D03*
X140900000Y-110900000D03*
X144700000Y-122100000D03*
X148500000Y-118800000D03*
X144700000Y-124600000D03*
X149200000Y-116950000D03*
X140500000Y-114500000D03*
X140500000Y-109400000D03*
X158400000Y-126100000D03*
X148400000Y-122700000D03*
X147500000Y-88500000D03*
X140300000Y-88700000D03*
X140100000Y-84000000D03*
X140300000Y-81400000D03*
X156200000Y-117800000D03*
X155600000Y-121500000D03*
X152500000Y-114600000D03*
X150817280Y-114690000D03*
X149600000Y-114700000D03*
X148400000Y-114700000D03*
X149008017Y-106590575D03*
X157700000Y-120799000D03*
X158600000Y-124400000D03*
X148761091Y-126561091D03*
X147500000Y-131000000D03*
X147700000Y-127050000D03*
X146400000Y-130700000D03*
X150400000Y-131100000D03*
X149221456Y-122203640D03*
X143050000Y-92755635D03*
X151238587Y-126936403D03*
X154800000Y-124000000D03*
X151000000Y-127700000D03*
X155300000Y-126100000D03*
X140700000Y-86500000D03*
X138800000Y-87900000D03*
X150200000Y-127700000D03*
X155300000Y-123200000D03*
X154600000Y-99705000D03*
X154600000Y-93405000D03*
D10*
X147045000Y-104555000D02*
X146200000Y-105400000D01*
D25*
X152700000Y-103572500D02*
X152700000Y-104400000D01*
D10*
X154200000Y-113167500D02*
X154800000Y-113167500D01*
X160867500Y-122267500D02*
X159900000Y-121300000D01*
D25*
X137270000Y-104270000D02*
X138870999Y-104270000D01*
D10*
X148300000Y-111100000D02*
X148300000Y-110500000D01*
D25*
X156235000Y-108600000D02*
X156235000Y-109700000D01*
X138870999Y-104270000D02*
X140000999Y-105400000D01*
D26*
X156237500Y-84440000D02*
X156237500Y-85077500D01*
D10*
X153100000Y-113167500D02*
X153100000Y-114000000D01*
D26*
X156237500Y-85077500D02*
X157500000Y-86340000D01*
D10*
X148600000Y-104555000D02*
X147045000Y-104555000D01*
X160306436Y-127528564D02*
X160867500Y-126967500D01*
X146132500Y-96700000D02*
X146132500Y-97067500D01*
X146132500Y-97067500D02*
X145700000Y-97500000D01*
X147662500Y-104502500D02*
X147600000Y-104565000D01*
D25*
X136300000Y-92540000D02*
X137270000Y-91570000D01*
D10*
X154800000Y-113167500D02*
X154800000Y-114000000D01*
D25*
X136300000Y-92600000D02*
X136300000Y-92540000D01*
D10*
X152400000Y-105300000D02*
X151567500Y-105300000D01*
D27*
X142731000Y-97631000D02*
X142700000Y-97600000D01*
D10*
X154800000Y-113167500D02*
X155300000Y-113167500D01*
D26*
X157500000Y-86340000D02*
X157500000Y-87240000D01*
D10*
X160135650Y-127528564D02*
X160306436Y-127528564D01*
D25*
X158200000Y-83540000D02*
X158200000Y-86540000D01*
X137270000Y-86490000D02*
X139010000Y-86490000D01*
D10*
X160867500Y-126967500D02*
X160867500Y-125200000D01*
D26*
X156237500Y-84440000D02*
X156237500Y-83142500D01*
D10*
X160867500Y-123500000D02*
X160867500Y-122267500D01*
X148500000Y-111300000D02*
X148300000Y-111100000D01*
D25*
X139010000Y-86490000D02*
X139400000Y-86100000D01*
X157000000Y-109700000D02*
X156235000Y-109700000D01*
D26*
X156237500Y-83142500D02*
X155735000Y-82640000D01*
D25*
X158200000Y-86540000D02*
X157500000Y-87240000D01*
D28*
X159800000Y-94400000D02*
X159800000Y-92000000D01*
D26*
X154960000Y-86300000D02*
X154162500Y-85502500D01*
D28*
X158200000Y-89700000D02*
X159800000Y-91300000D01*
D26*
X154960000Y-87240000D02*
X154960000Y-86300000D01*
D27*
X156580000Y-89200000D02*
X157700000Y-89200000D01*
D28*
X159800000Y-91300000D02*
X159800000Y-92000000D01*
D26*
X154960000Y-87240000D02*
X154960000Y-87600000D01*
X154162500Y-84440000D02*
X154162500Y-83077500D01*
X154162500Y-83077500D02*
X154600000Y-82640000D01*
D27*
X154960000Y-87580000D02*
X156580000Y-89200000D01*
X154960000Y-87200000D02*
X154960000Y-87580000D01*
X157700000Y-89200000D02*
X158200000Y-89700000D01*
D26*
X154162500Y-85502500D02*
X154162500Y-84440000D01*
D25*
X159335000Y-83540000D02*
X159335000Y-86535000D01*
X159335000Y-86535000D02*
X160040000Y-87240000D01*
X152088925Y-117951000D02*
X151837925Y-117700000D01*
X142600000Y-106679000D02*
X142731000Y-106810000D01*
X142021000Y-106679000D02*
X142600000Y-106679000D01*
D27*
X146000000Y-125100000D02*
X146000000Y-118000000D01*
X146000000Y-118000000D02*
X146000000Y-107800000D01*
X145010000Y-106810000D02*
X142731000Y-106810000D01*
D25*
X151837925Y-117700000D02*
X146300000Y-117700000D01*
D27*
X146000000Y-126200000D02*
X146000000Y-125100000D01*
D25*
X153300000Y-117362075D02*
X152711075Y-117951000D01*
X145010000Y-101110000D02*
X145010000Y-103000000D01*
X144400000Y-100500000D02*
X145010000Y-101110000D01*
X140000999Y-99600000D02*
X140900999Y-100500000D01*
X153300000Y-117200000D02*
X153300000Y-117362075D01*
D27*
X145070000Y-127130000D02*
X146000000Y-126200000D01*
D25*
X140900999Y-100500000D02*
X144400000Y-100500000D01*
X141132500Y-107567500D02*
X142021000Y-106679000D01*
X140500000Y-107567500D02*
X141132500Y-107567500D01*
X145010000Y-103000000D02*
X145010000Y-106810000D01*
D27*
X142731000Y-127130000D02*
X145070000Y-127130000D01*
D25*
X152711075Y-117951000D02*
X152088925Y-117951000D01*
X146300000Y-117700000D02*
X146000000Y-118000000D01*
X140000000Y-99600999D02*
X140000999Y-99600000D01*
D27*
X146000000Y-107800000D02*
X145010000Y-106810000D01*
D10*
X159732500Y-125200000D02*
X158600003Y-125200000D01*
X158600003Y-125200000D02*
X158600000Y-125200003D01*
X159732500Y-123500000D02*
X158500000Y-123500000D01*
X158500000Y-123500000D02*
X158400000Y-123400000D01*
D25*
X151800000Y-97237500D02*
X151800000Y-96702500D01*
X152062500Y-97500000D02*
X151800000Y-97237500D01*
X152800000Y-97500000D02*
X152062500Y-97500000D01*
X151800000Y-96702500D02*
X153800000Y-94702500D01*
X153800000Y-98605000D02*
X153800000Y-98500000D01*
X153800000Y-98500000D02*
X152800000Y-97500000D01*
X152700000Y-101262500D02*
X151800000Y-100362500D01*
X152700000Y-102437500D02*
X152700000Y-101262500D01*
X147267500Y-99067500D02*
X147900000Y-99700000D01*
X148100000Y-93400000D02*
X148500000Y-93400000D01*
X147267500Y-96700000D02*
X147267500Y-99067500D01*
X147267500Y-94232500D02*
X148100000Y-93400000D01*
X147267500Y-96700000D02*
X147267500Y-94232500D01*
X147900000Y-99700000D02*
X148500000Y-99700000D01*
X155100000Y-109700000D02*
X154700000Y-109300000D01*
D10*
X152700000Y-111100000D02*
X152800000Y-111100000D01*
D26*
X154951000Y-107678290D02*
X153772710Y-106500000D01*
D10*
X149237040Y-105813443D02*
X149237040Y-105714123D01*
X154124265Y-108924265D02*
X154575735Y-108924265D01*
X152000000Y-112702500D02*
X152000000Y-111800000D01*
X149252416Y-105828819D02*
X149237040Y-105813443D01*
X149954270Y-105300000D02*
X150432500Y-105300000D01*
D26*
X153772710Y-106500000D02*
X151322500Y-106500000D01*
D10*
X149562753Y-105691517D02*
X149954270Y-105300000D01*
X154575735Y-108924265D02*
X154600000Y-108900000D01*
X150432500Y-105610000D02*
X150922500Y-106100000D01*
D26*
X154600000Y-109300000D02*
X154600000Y-108900000D01*
D10*
X151997500Y-112700000D02*
X152000000Y-112702500D01*
D26*
X151322500Y-106500000D02*
X150922500Y-106100000D01*
D10*
X152000000Y-111800000D02*
X152700000Y-111100000D01*
D26*
X152800000Y-111100000D02*
X154600000Y-109300000D01*
X154951000Y-108549000D02*
X154951000Y-107678290D01*
D10*
X149237040Y-105714123D02*
X149259646Y-105691517D01*
X148400000Y-112700000D02*
X151997500Y-112700000D01*
D26*
X154600000Y-108900000D02*
X154951000Y-108549000D01*
D10*
X153100000Y-112032500D02*
X153100000Y-111400000D01*
X150432500Y-105300000D02*
X150432500Y-105610000D01*
X149259646Y-105691517D02*
X149562753Y-105691517D01*
X153100000Y-111400000D02*
X152800000Y-111100000D01*
D25*
X154700000Y-109300000D02*
X154600000Y-109300000D01*
D10*
X147600000Y-106300000D02*
X147600000Y-105700000D01*
D27*
X150750000Y-111200000D02*
X151000000Y-111200000D01*
X147899000Y-106899000D02*
X147899000Y-106814628D01*
X152900000Y-109300000D02*
X152900000Y-108732902D01*
X150600000Y-111200000D02*
X149000000Y-109600000D01*
X149000000Y-108000000D02*
X148891876Y-107891876D01*
X150750000Y-111200000D02*
X150600000Y-111200000D01*
X152900000Y-108732902D02*
X153532902Y-108100000D01*
X149000000Y-109600000D02*
X149000000Y-108000000D01*
X148891876Y-107888618D02*
X148305504Y-107302246D01*
X151000000Y-111200000D02*
X152900000Y-109300000D01*
X148302246Y-107302246D02*
X147899000Y-106899000D01*
D10*
X154100000Y-108100000D02*
X153532902Y-108100000D01*
D27*
X148891876Y-107891876D02*
X148891876Y-107888618D01*
D10*
X147942345Y-106642345D02*
X147600000Y-106300000D01*
D27*
X148305504Y-107302246D02*
X148302246Y-107302246D01*
D10*
X147942345Y-106657655D02*
X147942345Y-106642345D01*
X154100000Y-111200000D02*
X154100000Y-111932500D01*
X154100000Y-111932500D02*
X154200000Y-112032500D01*
X155300000Y-112032500D02*
X154200000Y-112032500D01*
X141890000Y-111890000D02*
X142731000Y-111890000D01*
X140900000Y-110900000D02*
X141890000Y-111890000D01*
X144700000Y-122100000D02*
X142781000Y-122100000D01*
X142781000Y-122100000D02*
X142731000Y-122050000D01*
X147797500Y-118900000D02*
X148400000Y-118900000D01*
X148400000Y-118900000D02*
X148500000Y-118800000D01*
X144700000Y-124600000D02*
X142741000Y-124600000D01*
X149200000Y-116950000D02*
X149050000Y-116800000D01*
X142741000Y-124600000D02*
X142731000Y-124590000D01*
X148097500Y-116800000D02*
X147897500Y-116600000D01*
X149050000Y-116800000D02*
X148097500Y-116800000D01*
X140570000Y-114430000D02*
X140500000Y-114500000D01*
X142731000Y-114430000D02*
X140570000Y-114430000D01*
X140550000Y-109350000D02*
X140500000Y-109400000D01*
X142731000Y-109350000D02*
X140550000Y-109350000D01*
X159702500Y-126300000D02*
X158600000Y-126300000D01*
X158600000Y-126300000D02*
X158400000Y-126100000D01*
X148400000Y-122700000D02*
X148097500Y-122700000D01*
X148097500Y-122700000D02*
X147697500Y-122300000D01*
X140630000Y-89030000D02*
X142731000Y-89030000D01*
X140300000Y-88700000D02*
X140630000Y-89030000D01*
X146970000Y-89030000D02*
X142731000Y-89030000D01*
X147500000Y-88500000D02*
X146970000Y-89030000D01*
X140100000Y-84000000D02*
X140150000Y-83950000D01*
X140150000Y-83950000D02*
X142731000Y-83950000D01*
X140310000Y-81410000D02*
X142731000Y-81410000D01*
X140300000Y-81400000D02*
X140310000Y-81410000D01*
X155600000Y-121500000D02*
X155600000Y-118400000D01*
X155600000Y-118400000D02*
X156200000Y-117800000D01*
X152000000Y-114100000D02*
X152000000Y-113897500D01*
X152500000Y-114600000D02*
X152000000Y-114100000D01*
X150817280Y-114690000D02*
X150817280Y-113914780D01*
X150817280Y-113914780D02*
X150800000Y-113897500D01*
X149600000Y-114700000D02*
X149600000Y-113897500D01*
X148400000Y-114700000D02*
X148400000Y-113895000D01*
X148600000Y-105950000D02*
X148600000Y-105997500D01*
X148400000Y-105750000D02*
X148600000Y-105950000D01*
X148759234Y-106509941D02*
X148400000Y-106150707D01*
X149008017Y-106590575D02*
X148927383Y-106509941D01*
X148927383Y-106509941D02*
X148759234Y-106509941D01*
X148400000Y-106150707D02*
X148400000Y-105750000D01*
X157700000Y-120900000D02*
X157700000Y-123549943D01*
X157700000Y-123549943D02*
X158550057Y-124400000D01*
X158550057Y-124400000D02*
X158600000Y-124400000D01*
X158611000Y-124389000D02*
X158600000Y-124400000D01*
X148761091Y-129738909D02*
X148761091Y-126561091D01*
X147500000Y-131000000D02*
X148761091Y-129738909D01*
X147700000Y-129400000D02*
X147700000Y-127050000D01*
X146400000Y-130700000D02*
X147700000Y-129400000D01*
X149500000Y-130300000D02*
X149500000Y-124700000D01*
X150200000Y-122750057D02*
X149653583Y-122203640D01*
X150300000Y-131100000D02*
X149500000Y-130300000D01*
X149500000Y-124700000D02*
X150200000Y-124000000D01*
X150200000Y-124000000D02*
X150200000Y-122750057D01*
X150400000Y-131100000D02*
X150300000Y-131100000D01*
X149653583Y-122203640D02*
X149221456Y-122203640D01*
X151263597Y-126936403D02*
X151238587Y-126936403D01*
X143050000Y-92755635D02*
X143050000Y-91889000D01*
X154700000Y-124100000D02*
X154100000Y-124100000D01*
X154100000Y-124100000D02*
X151263597Y-126936403D01*
X151238587Y-126936403D02*
X151302184Y-127000000D01*
X143050000Y-91889000D02*
X142731000Y-91570000D01*
X154800000Y-124000000D02*
X154700000Y-124100000D01*
X151000000Y-127700000D02*
X151700000Y-127700000D01*
X140710000Y-86490000D02*
X140700000Y-86500000D01*
X151700000Y-127700000D02*
X153300000Y-126100000D01*
X142731000Y-86490000D02*
X140710000Y-86490000D01*
X153300000Y-126100000D02*
X155300000Y-126100000D01*
X155200000Y-123200000D02*
X155100000Y-123300000D01*
X155100000Y-123300000D02*
X153400000Y-123300000D01*
X137670000Y-89030000D02*
X138800000Y-87900000D01*
X153400000Y-123300000D02*
X150312465Y-126387535D01*
X137270000Y-89030000D02*
X137670000Y-89030000D01*
X150312465Y-127587535D02*
X150200000Y-127700000D01*
X150312465Y-126387535D02*
X150312465Y-127587535D01*
X155300000Y-123200000D02*
X155200000Y-123200000D01*
X153800000Y-99800000D02*
X154505000Y-99800000D01*
X154505000Y-99800000D02*
X154600000Y-99705000D01*
X154497500Y-93507500D02*
X154600000Y-93405000D01*
X153800000Y-93507500D02*
X154497500Y-93507500D01*
M02*
