ISO-10303-21;
HEADER;
FILE_DESCRIPTION (( 'STEP AP214' ),
    '1' );
FILE_NAME ('Ethernet_Magnetics_TS8121CMHF.STEP',
    '2026-01-15T22:00:59',
    ( '' ),
    ( '' ),
    'SwSTEP 2.0',
    'SolidWorks 2020',
    '' );
FILE_SCHEMA (( 'AUTOMOTIVE_DESIGN' ));
ENDSEC;

DATA;
#1 = CARTESIAN_POINT ( 'NONE',  ( -3.449999999999998401, 5.650000000000000355, 6.400000000000003908 ) ) ;
#2 = DIRECTION ( 'NONE',  ( 0.000000000000000000, 0.000000000000000000, 1.000000000000000000 ) ) ;
#3 = ADVANCED_FACE ( 'NONE', ( #13 ), #144, .F. ) ;
#4 = VECTOR ( 'NONE', #137, 1000.000000000000000 ) ;
#5 = PRESENTATION_STYLE_ASSIGNMENT (( #40 ) ) ;
#6 = CARTESIAN_POINT ( 'NONE',  ( -3.449999999999998401, 0.000000000000000000, 6.400000000000003908 ) ) ;
#7 = CARTESIAN_POINT ( 'NONE',  ( 3.450000000000002398, 0.000000000000000000, 6.400000000000003020 ) ) ;
#8 = STYLED_ITEM ( 'NONE', ( #123 ), #43 ) ;
#9 =( NAMED_UNIT ( * ) PLANE_ANGLE_UNIT ( ) SI_UNIT ( $, .RADIAN. ) );
#10 = CARTESIAN_POINT ( 'NONE',  ( 3.450000000000002398, 0.000000000000000000, -6.399999999999997691 ) ) ;
#11 = SURFACE_STYLE_FILL_AREA ( #139 ) ;
#12 = ADVANCED_FACE ( 'NONE', ( #126 ), #186, .F. ) ;
#13 = FACE_OUTER_BOUND ( 'NONE', #130, .T. ) ;
#14 = MANIFOLD_SOLID_BREP ( 'Boss-Extrude1', #68 ) ;
#15 = ORIENTED_EDGE ( 'NONE', *, *, #60, .F. ) ;
#16 = LINE ( 'NONE', #151, #109 ) ;
#17 = CARTESIAN_POINT ( 'NONE',  ( 0.000000000000000000, 5.650000000000000355, 0.000000000000000000 ) ) ;
#18 = ADVANCED_FACE ( 'NONE', ( #181 ), #201, .F. ) ;
#19 = CARTESIAN_POINT ( 'NONE',  ( 3.450000000000002398, 5.650000000000000355, 6.400000000000003020 ) ) ;
#20 =( LENGTH_UNIT ( ) NAMED_UNIT ( * ) SI_UNIT ( .MILLI., .METRE. ) );
#21 = DIRECTION ( 'NONE',  ( -1.257045997084643104E-16, 0.000000000000000000, 1.000000000000000000 ) ) ;
#22 = PRODUCT_DEFINITION_CONTEXT ( 'detailed design', #162, 'design' ) ;
#23 = COLOUR_RGB ( '',0.7529411764705882248, 0.7529411764705882248, 0.7529411764705882248 ) ;
#24 = VECTOR ( 'NONE', #182, 1000.000000000000000 ) ;
#25 = DIRECTION ( 'NONE',  ( 0.000000000000000000, 0.000000000000000000, 1.000000000000000000 ) ) ;
#26 = APPLICATION_PROTOCOL_DEFINITION ( 'draft international standard', 'automotive_design', 1998, #162 ) ;
#27 = SHAPE_DEFINITION_REPRESENTATION ( #39, #43 ) ;
#28 = EDGE_LOOP ( 'NONE', ( #178, #52, #112, #66 ) ) ;
#29 = SURFACE_SIDE_STYLE ('',( #113 ) ) ;
#30 = AXIS2_PLACEMENT_3D ( 'NONE', #199, #64, #65 ) ;
#31 = VERTEX_POINT ( 'NONE', #72 ) ;
#32 = ADVANCED_FACE ( 'NONE', ( #57 ), #105, .T. ) ;
#33 = ORIENTED_EDGE ( 'NONE', *, *, #119, .T. ) ;
#34 = MECHANICAL_DESIGN_GEOMETRIC_PRESENTATION_REPRESENTATION (  '', ( #8 ), #63 ) ;
#35 = VERTEX_POINT ( 'NONE', #193 ) ;
#36 = FACE_OUTER_BOUND ( 'NONE', #28, .T. ) ;
#37 = EDGE_CURVE ( 'NONE', #97, #114, #86, .T. ) ;
#38 = CARTESIAN_POINT ( 'NONE',  ( -3.449999999999998401, 0.000000000000000000, 6.400000000000003908 ) ) ;
#39 = PRODUCT_DEFINITION_SHAPE ( 'NONE', 'NONE',  #104 ) ;
#40 = SURFACE_STYLE_USAGE ( .BOTH. , #29 ) ;
#41 = CARTESIAN_POINT ( 'NONE',  ( 3.450000000000002398, 5.650000000000000355, 6.400000000000003020 ) ) ;
#42 = DIRECTION ( 'NONE',  ( -0.000000000000000000, -0.000000000000000000, 1.000000000000000000 ) ) ;
#43 = ADVANCED_BREP_SHAPE_REPRESENTATION ( 'Ethernet_Magnetics_TS8121CMHF', ( #14, #83 ), #148 ) ;
#44 = SURFACE_STYLE_USAGE ( .BOTH. , #138 ) ;
#45 = PRESENTATION_LAYER_ASSIGNMENT (  '', '', ( #8 ) ) ;
#46 = VECTOR ( 'NONE', #184, 1000.000000000000000 ) ;
#47 = ADVANCED_FACE ( 'NONE', ( #166 ), #132, .F. ) ;
#48 = DIRECTION ( 'NONE',  ( -1.000000000000000000, 0.000000000000000000, -1.257045997084642858E-16 ) ) ;
#49 = CARTESIAN_POINT ( 'NONE',  ( 3.450000000000002398, 5.650000000000000355, -6.399999999999997691 ) ) ;
#50 = FILL_AREA_STYLE ('',( #187 ) ) ;
#51 = EDGE_LOOP ( 'NONE', ( #78, #147, #202, #115 ) ) ;
#52 = ORIENTED_EDGE ( 'NONE', *, *, #73, .F. ) ;
#53 = ORIENTED_EDGE ( 'NONE', *, *, #95, .F. ) ;
#54 = LINE ( 'NONE', #1, #191 ) ;
#55 = AXIS2_PLACEMENT_3D ( 'NONE', #17, #136, #120 ) ;
#56 = LINE ( 'NONE', #7, #79 ) ;
#57 = FACE_OUTER_BOUND ( 'NONE', #51, .T. ) ;
#58 = COLOUR_RGB ( '',0.7529411764705882248, 0.7529411764705882248, 0.7529411764705882248 ) ;
#59 = LINE ( 'NONE', #38, #117 ) ;
#60 = EDGE_CURVE ( 'NONE', #114, #189, #121, .T. ) ;
#61 = LINE ( 'NONE', #141, #88 ) ;
#62 = CARTESIAN_POINT ( 'NONE',  ( -3.449999999999998401, 5.650000000000000355, -6.399999999999998579 ) ) ;
#63 =( GEOMETRIC_REPRESENTATION_CONTEXT ( 3 ) GLOBAL_UNCERTAINTY_ASSIGNED_CONTEXT ( ( #107 ) ) GLOBAL_UNIT_ASSIGNED_CONTEXT ( ( #198, #9, #171 ) ) REPRESENTATION_CONTEXT ( 'NONE', 'WORKASPACE' ) );
#64 = DIRECTION ( 'NONE',  ( 0.000000000000000000, 1.000000000000000000, 0.000000000000000000 ) ) ;
#65 = DIRECTION ( 'NONE',  ( 0.000000000000000000, -0.000000000000000000, 1.000000000000000000 ) ) ;
#66 = ORIENTED_EDGE ( 'NONE', *, *, #142, .T. ) ;
#67 = EDGE_CURVE ( 'NONE', #163, #97, #54, .T. ) ;
#68 = CLOSED_SHELL ( 'NONE', ( #12, #89, #18, #47, #32, #3 ) ) ;
#69 = VERTEX_POINT ( 'NONE', #6 ) ;
#70 = DIRECTION ( 'NONE',  ( -1.000000000000000000, 0.000000000000000000, 0.000000000000000000 ) ) ;
#71 = CARTESIAN_POINT ( 'NONE',  ( 3.450000000000002398, 5.650000000000000355, 6.400000000000003020 ) ) ;
#72 = CARTESIAN_POINT ( 'NONE',  ( 3.450000000000002398, 0.000000000000000000, -6.399999999999997691 ) ) ;
#73 = EDGE_CURVE ( 'NONE', #114, #176, #179, .T. ) ;
#74 = DIRECTION ( 'NONE',  ( 1.000000000000000000, -0.000000000000000000, -1.257045997084642858E-16 ) ) ;
#75 = DIRECTION ( 'NONE',  ( -0.000000000000000000, -1.000000000000000000, -0.000000000000000000 ) ) ;
#76 = APPLICATION_PROTOCOL_DEFINITION ( 'draft international standard', 'automotive_design', 1998, #140 ) ;
#77 =( LENGTH_UNIT ( ) NAMED_UNIT ( * ) SI_UNIT ( .MILLI., .METRE. ) );
#78 = ORIENTED_EDGE ( 'NONE', *, *, #67, .T. ) ;
#79 = VECTOR ( 'NONE', #74, 1000.000000000000000 ) ;
#80 = DIRECTION ( 'NONE',  ( 1.000000000000000000, -0.000000000000000000, 0.000000000000000000 ) ) ;
#81 = ORIENTED_EDGE ( 'NONE', *, *, #125, .F. ) ;
#82 = ORIENTED_EDGE ( 'NONE', *, *, #119, .F. ) ;
#83 = AXIS2_PLACEMENT_3D ( 'NONE', #143, #25, #93 ) ;
#84 = ORIENTED_EDGE ( 'NONE', *, *, #73, .T. ) ;
#85 =( NAMED_UNIT ( * ) PLANE_ANGLE_UNIT ( ) SI_UNIT ( $, .RADIAN. ) );
#86 = LINE ( 'NONE', #106, #161 ) ;
#87 = LINE ( 'NONE', #122, #24 ) ;
#88 = VECTOR ( 'NONE', #48, 1000.000000000000000 ) ;
#89 = ADVANCED_FACE ( 'NONE', ( #36 ), #152, .F. ) ;
#90 = CARTESIAN_POINT ( 'NONE',  ( 3.450000000000002398, 5.650000000000000355, 6.400000000000003020 ) ) ;
#91 = DIRECTION ( 'NONE',  ( -0.000000000000000000, -1.000000000000000000, -0.000000000000000000 ) ) ;
#92 = EDGE_CURVE ( 'NONE', #163, #35, #108, .T. ) ;
#93 = DIRECTION ( 'NONE',  ( 1.000000000000000000, 0.000000000000000000, 0.000000000000000000 ) ) ;
#94 = ORIENTED_EDGE ( 'NONE', *, *, #125, .T. ) ;
#95 = EDGE_CURVE ( 'NONE', #69, #176, #56, .T. ) ;
#96 = AXIS2_PLACEMENT_3D ( 'NONE', #154, #21, #190 ) ;
#97 = VERTEX_POINT ( 'NONE', #194 ) ;
#98 = ORIENTED_EDGE ( 'NONE', *, *, #133, .T. ) ;
#99 = EDGE_LOOP ( 'NONE', ( #98, #150, #188, #94 ) ) ;
#100 = PRODUCT_DEFINITION_FORMATION_WITH_SPECIFIED_SOURCE ( 'ANY', '', #128, .NOT_KNOWN. ) ;
#101 = EDGE_LOOP ( 'NONE', ( #131, #177, #149, #129 ) ) ;
#102 = DIRECTION ( 'NONE',  ( -0.000000000000000000, -0.000000000000000000, 1.000000000000000000 ) ) ;
#103 = EDGE_CURVE ( 'NONE', #35, #69, #59, .T. ) ;
#104 = PRODUCT_DEFINITION ( 'UNKNOWN', '', #100, #22 ) ;
#105 = PLANE ( 'NONE',  #55 ) ;
#106 = CARTESIAN_POINT ( 'NONE',  ( 3.450000000000002398, 5.650000000000000355, 6.400000000000003020 ) ) ;
#107 = UNCERTAINTY_MEASURE_WITH_UNIT (LENGTH_MEASURE( 1.000000000000000082E-05 ), #198, 'distance_accuracy_value', 'NONE');
#108 = LINE ( 'NONE', #192, #4 ) ;
#109 = VECTOR ( 'NONE', #75, 1000.000000000000000 ) ;
#110 = LINE ( 'NONE', #10, #200 ) ;
#111 = PRODUCT_CONTEXT ( 'NONE', #140, 'mechanical' ) ;
#112 = ORIENTED_EDGE ( 'NONE', *, *, #37, .F. ) ;
#113 = SURFACE_STYLE_FILL_AREA ( #50 ) ;
#114 = VERTEX_POINT ( 'NONE', #19 ) ;
#115 = ORIENTED_EDGE ( 'NONE', *, *, #156, .T. ) ;
#116 =( NAMED_UNIT ( * ) SI_UNIT ( $, .STERADIAN. ) SOLID_ANGLE_UNIT ( ) );
#117 = VECTOR ( 'NONE', #102, 1000.000000000000000 ) ;
#118 = DIRECTION ( 'NONE',  ( -1.000000000000000000, 0.000000000000000000, 1.257045997084643104E-16 ) ) ;
#119 = EDGE_CURVE ( 'NONE', #176, #31, #87, .T. ) ;
#120 = DIRECTION ( 'NONE',  ( 0.000000000000000000, -0.000000000000000000, 1.000000000000000000 ) ) ;
#121 = LINE ( 'NONE', #90, #145 ) ;
#122 = CARTESIAN_POINT ( 'NONE',  ( 3.450000000000002398, 0.000000000000000000, 6.400000000000003020 ) ) ;
#123 = PRESENTATION_STYLE_ASSIGNMENT (( #44 ) ) ;
#124 = CARTESIAN_POINT ( 'NONE',  ( -3.449999999999998401, 5.650000000000000355, 6.400000000000003908 ) ) ;
#125 = EDGE_CURVE ( 'NONE', #189, #31, #16, .T. ) ;
#126 = FACE_OUTER_BOUND ( 'NONE', #101, .T. ) ;
#127 = EDGE_LOOP ( 'NONE', ( #33, #81, #15, #84 ) ) ;
#128 = PRODUCT ( 'Ethernet_Magnetics_TS8121CMHF', 'Ethernet_Magnetics_TS8121CMHF', '', ( #111 ) ) ;
#129 = ORIENTED_EDGE ( 'NONE', *, *, #92, .T. ) ;
#130 = EDGE_LOOP ( 'NONE', ( #164, #159, #82, #53 ) ) ;
#131 = ORIENTED_EDGE ( 'NONE', *, *, #103, .T. ) ;
#132 = PLANE ( 'NONE',  #96 ) ;
#133 = EDGE_CURVE ( 'NONE', #31, #35, #110, .T. ) ;
#134 = PRODUCT_RELATED_PRODUCT_CATEGORY ( 'part', '', ( #128 ) ) ;
#135 = DIRECTION ( 'NONE',  ( -1.257045997084643104E-16, 0.000000000000000000, -1.000000000000000000 ) ) ;
#136 = DIRECTION ( 'NONE',  ( 0.000000000000000000, 1.000000000000000000, 0.000000000000000000 ) ) ;
#137 = DIRECTION ( 'NONE',  ( -0.000000000000000000, -1.000000000000000000, -0.000000000000000000 ) ) ;
#138 = SURFACE_SIDE_STYLE ('',( #11 ) ) ;
#139 = FILL_AREA_STYLE ('',( #172 ) ) ;
#140 = APPLICATION_CONTEXT ( 'automotive_design' ) ;
#141 = CARTESIAN_POINT ( 'NONE',  ( 3.450000000000002398, 5.650000000000000355, -6.399999999999997691 ) ) ;
#142 = EDGE_CURVE ( 'NONE', #97, #69, #197, .T. ) ;
#143 = CARTESIAN_POINT ( 'NONE',  ( 0.000000000000000000, 0.000000000000000000, 0.000000000000000000 ) ) ;
#144 = PLANE ( 'NONE',  #30 ) ;
#145 = VECTOR ( 'NONE', #153, 1000.000000000000000 ) ;
#146 = DIRECTION ( 'NONE',  ( 0.000000000000000000, 0.000000000000000000, -1.000000000000000000 ) ) ;
#147 = ORIENTED_EDGE ( 'NONE', *, *, #37, .T. ) ;
#148 =( GEOMETRIC_REPRESENTATION_CONTEXT ( 3 ) GLOBAL_UNCERTAINTY_ASSIGNED_CONTEXT ( ( #155 ) ) GLOBAL_UNIT_ASSIGNED_CONTEXT ( ( #77, #169, #195 ) ) REPRESENTATION_CONTEXT ( 'NONE', 'WORKASPACE' ) );
#149 = ORIENTED_EDGE ( 'NONE', *, *, #67, .F. ) ;
#150 = ORIENTED_EDGE ( 'NONE', *, *, #92, .F. ) ;
#151 = CARTESIAN_POINT ( 'NONE',  ( 3.450000000000002398, 5.650000000000000355, -6.399999999999997691 ) ) ;
#152 = PLANE ( 'NONE',  #170 ) ;
#153 = DIRECTION ( 'NONE',  ( 0.000000000000000000, 0.000000000000000000, -1.000000000000000000 ) ) ;
#154 = CARTESIAN_POINT ( 'NONE',  ( 3.450000000000002398, 5.650000000000000355, -6.399999999999997691 ) ) ;
#155 = UNCERTAINTY_MEASURE_WITH_UNIT (LENGTH_MEASURE( 1.000000000000000082E-05 ), #77, 'distance_accuracy_value', 'NONE');
#156 = EDGE_CURVE ( 'NONE', #189, #163, #61, .T. ) ;
#157 = CARTESIAN_POINT ( 'NONE',  ( 3.450000000000002398, 0.000000000000000000, 6.400000000000003020 ) ) ;
#158 = AXIS2_PLACEMENT_3D ( 'NONE', #174, #80, #146 ) ;
#159 = ORIENTED_EDGE ( 'NONE', *, *, #133, .F. ) ;
#160 = MECHANICAL_DESIGN_GEOMETRIC_PRESENTATION_REPRESENTATION (  '', ( #165 ), #183 ) ;
#161 = VECTOR ( 'NONE', #168, 1000.000000000000000 ) ;
#162 = APPLICATION_CONTEXT ( 'automotive_design' ) ;
#163 = VERTEX_POINT ( 'NONE', #62 ) ;
#164 = ORIENTED_EDGE ( 'NONE', *, *, #103, .F. ) ;
#165 = STYLED_ITEM ( 'NONE', ( #5 ), #14 ) ;
#166 = FACE_OUTER_BOUND ( 'NONE', #99, .T. ) ;
#167 = UNCERTAINTY_MEASURE_WITH_UNIT (LENGTH_MEASURE( 1.000000000000000082E-05 ), #20, 'distance_accuracy_value', 'NONE');
#168 = DIRECTION ( 'NONE',  ( 1.000000000000000000, -0.000000000000000000, -1.257045997084642858E-16 ) ) ;
#169 =( NAMED_UNIT ( * ) PLANE_ANGLE_UNIT ( ) SI_UNIT ( $, .RADIAN. ) );
#170 = AXIS2_PLACEMENT_3D ( 'NONE', #71, #135, #118 ) ;
#171 =( NAMED_UNIT ( * ) SI_UNIT ( $, .STERADIAN. ) SOLID_ANGLE_UNIT ( ) );
#172 = FILL_AREA_STYLE_COLOUR ( '', #58 ) ;
#173 = PRESENTATION_LAYER_ASSIGNMENT (  '', '', ( #165 ) ) ;
#174 = CARTESIAN_POINT ( 'NONE',  ( -3.449999999999998401, 5.650000000000000355, 6.400000000000003908 ) ) ;
#175 = VECTOR ( 'NONE', #91, 1000.000000000000000 ) ;
#176 = VERTEX_POINT ( 'NONE', #157 ) ;
#177 = ORIENTED_EDGE ( 'NONE', *, *, #142, .F. ) ;
#178 = ORIENTED_EDGE ( 'NONE', *, *, #95, .T. ) ;
#179 = LINE ( 'NONE', #41, #175 ) ;
#180 = CARTESIAN_POINT ( 'NONE',  ( 3.450000000000002398, 5.650000000000000355, 6.400000000000003020 ) ) ;
#181 = FACE_OUTER_BOUND ( 'NONE', #127, .T. ) ;
#182 = DIRECTION ( 'NONE',  ( 0.000000000000000000, 0.000000000000000000, -1.000000000000000000 ) ) ;
#183 =( GEOMETRIC_REPRESENTATION_CONTEXT ( 3 ) GLOBAL_UNCERTAINTY_ASSIGNED_CONTEXT ( ( #167 ) ) GLOBAL_UNIT_ASSIGNED_CONTEXT ( ( #20, #85, #116 ) ) REPRESENTATION_CONTEXT ( 'NONE', 'WORKASPACE' ) );
#184 = DIRECTION ( 'NONE',  ( -0.000000000000000000, -1.000000000000000000, -0.000000000000000000 ) ) ;
#185 = DIRECTION ( 'NONE',  ( -1.000000000000000000, 0.000000000000000000, -1.257045997084642858E-16 ) ) ;
#186 = PLANE ( 'NONE',  #158 ) ;
#187 = FILL_AREA_STYLE_COLOUR ( '', #23 ) ;
#188 = ORIENTED_EDGE ( 'NONE', *, *, #156, .F. ) ;
#189 = VERTEX_POINT ( 'NONE', #49 ) ;
#190 = DIRECTION ( 'NONE',  ( 1.000000000000000000, 0.000000000000000000, 1.257045997084643104E-16 ) ) ;
#191 = VECTOR ( 'NONE', #42, 1000.000000000000000 ) ;
#192 = CARTESIAN_POINT ( 'NONE',  ( -3.449999999999998401, 5.650000000000000355, -6.399999999999998579 ) ) ;
#193 = CARTESIAN_POINT ( 'NONE',  ( -3.449999999999998401, 0.000000000000000000, -6.399999999999998579 ) ) ;
#194 = CARTESIAN_POINT ( 'NONE',  ( -3.449999999999998401, 5.650000000000000355, 6.400000000000003908 ) ) ;
#195 =( NAMED_UNIT ( * ) SI_UNIT ( $, .STERADIAN. ) SOLID_ANGLE_UNIT ( ) );
#196 = AXIS2_PLACEMENT_3D ( 'NONE', #180, #70, #2 ) ;
#197 = LINE ( 'NONE', #124, #46 ) ;
#198 =( LENGTH_UNIT ( ) NAMED_UNIT ( * ) SI_UNIT ( .MILLI., .METRE. ) );
#199 = CARTESIAN_POINT ( 'NONE',  ( 0.000000000000000000, 0.000000000000000000, 0.000000000000000000 ) ) ;
#200 = VECTOR ( 'NONE', #185, 1000.000000000000000 ) ;
#201 = PLANE ( 'NONE',  #196 ) ;
#202 = ORIENTED_EDGE ( 'NONE', *, *, #60, .T. ) ;
ENDSEC;
END-ISO-10303-21;
